<?xml version="1.0" encoding="UTF-8" standalone="no"?><!DOCTYPE svg PUBLIC "-//W3C//DTD SVG 1.1//EN" "http://www.w3.org/Graphics/SVG/1.1/DTD/svg11.dtd"><svg width="100%" height="100%" viewBox="0 0 4725 4725" version="1.1" xmlns="http://www.w3.org/2000/svg" xmlns:xlink="http://www.w3.org/1999/xlink" xml:space="preserve" xmlns:serif="http://www.serif.com/" style="fill-rule:evenodd;clip-rule:evenodd;stroke-linejoin:round;stroke-miterlimit:2;"><g transform="matrix(1,0,0,0.987951,-0,-9.792352)"><g transform="matrix(73.850298,0,0,73.850298,315.794946,149.55362)"></g><text x="83.642px" y="149.554px" style="font-family:'FranklinGothic-Demi', 'Franklin Gothic Demi', sans-serif;font-size:73.85px;fill:#808080;">KIV<tspan x="190.56px 230.045px " y="149.554px 149.554px ">eS</tspan>S</text></g><g transform="matrix(1,0,0,0.987951,-0,-9.792352)"><g transform="matrix(73.850298,0,0,73.850298,708.761139,149.55362)"></g><text x="476.609px" y="149.554px" style="font-family:'FranklinGothic-Demi', 'Franklin Gothic Demi', sans-serif;font-size:73.85px;fill:#808080;">KIV<tspan x="583.526px 623.011px " y="149.554px 149.554px ">eS</tspan>S</text></g><g transform="matrix(1,0,0,0.987951,0,-9.792352)"><g transform="matrix(73.850298,0,0,73.850298,1101.727332,149.55362)"></g><text x="869.575px" y="149.554px" style="font-family:'FranklinGothic-Demi', 'Franklin Gothic Demi', sans-serif;font-size:73.85px;fill:#808080;">KIV<tspan x="976.492px 1015.977px " y="149.554px 149.554px ">eS</tspan>S</text></g><g transform="matrix(1,0,0,0.987951,0,-9.792352)"><g transform="matrix(73.850298,0,0,73.850298,1494.693526,149.55362)"></g><text x="1262.541px" y="149.554px" style="font-family:'FranklinGothic-Demi', 'Franklin Gothic Demi', sans-serif;font-size:73.85px;fill:#808080;">KIV<tspan x="1369.458px 1408.944px " y="149.554px 149.554px ">eS</tspan>S</text></g><g transform="matrix(1,0,0,0.987951,0,-9.792352)"><g transform="matrix(73.850298,0,0,73.850298,1887.659719,149.55362)"></g><text x="1655.507px" y="149.554px" style="font-family:'FranklinGothic-Demi', 'Franklin Gothic Demi', sans-serif;font-size:73.85px;fill:#808080;">KIV<tspan x="1762.424px 1801.91px " y="149.554px 149.554px ">eS</tspan>S</text></g><g transform="matrix(1,0,0,0.987951,0,-9.792352)"><g transform="matrix(73.850298,0,0,73.850298,2280.625912,149.55362)"></g><text x="2048.473px" y="149.554px" style="font-family:'FranklinGothic-Demi', 'Franklin Gothic Demi', sans-serif;font-size:73.85px;fill:#808080;">KIV<tspan x="2155.391px 2194.876px " y="149.554px 149.554px ">eS</tspan>S</text></g><g transform="matrix(1,0,0,0.987951,0,-9.792352)"><g transform="matrix(73.850298,0,0,73.850298,2673.592105,149.55362)"></g><text x="2441.44px" y="149.554px" style="font-family:'FranklinGothic-Demi', 'Franklin Gothic Demi', sans-serif;font-size:73.85px;fill:#808080;">KIV<tspan x="2548.357px 2587.842px " y="149.554px 149.554px ">eS</tspan>S</text></g><g transform="matrix(1,0,0,0.987951,0,-9.792352)"><g transform="matrix(73.850298,0,0,73.850298,3066.558298,149.55362)"></g><text x="2834.406px" y="149.554px" style="font-family:'FranklinGothic-Demi', 'Franklin Gothic Demi', sans-serif;font-size:73.85px;fill:#808080;">KIV<tspan x="2941.323px 2980.808px " y="149.554px 149.554px ">eS</tspan>S</text></g><g transform="matrix(1,0,0,0.987951,0,-9.792352)"><g transform="matrix(73.850298,0,0,73.850298,3459.524492,149.55362)"></g><text x="3227.372px" y="149.554px" style="font-family:'FranklinGothic-Demi', 'Franklin Gothic Demi', sans-serif;font-size:73.85px;fill:#808080;">KIV<tspan x="3334.289px 3373.774px " y="149.554px 149.554px ">eS</tspan>S</text></g><g transform="matrix(1,0,0,0.987951,0,-9.792352)"><g transform="matrix(73.850298,0,0,73.850298,3852.490685,149.55362)"></g><text x="3620.338px" y="149.554px" style="font-family:'FranklinGothic-Demi', 'Franklin Gothic Demi', sans-serif;font-size:73.85px;fill:#808080;">KIV<tspan x="3727.255px 3766.741px " y="149.554px 149.554px ">eS</tspan>S</text></g><g transform="matrix(1,0,0,0.987951,0,-9.792352)"><g transform="matrix(73.850298,0,0,73.850298,4245.456878,149.55362)"></g><text x="4013.304px" y="149.554px" style="font-family:'FranklinGothic-Demi', 'Franklin Gothic Demi', sans-serif;font-size:73.85px;fill:#808080;">KIV<tspan x="4120.221px 4159.707px " y="149.554px 149.554px ">eS</tspan>S</text></g><g transform="matrix(1,0,0,0.987951,0,-9.792352)"><g transform="matrix(73.850298,0,0,73.850298,4638.423071,149.55362)"></g><text x="4406.271px" y="149.554px" style="font-family:'FranklinGothic-Demi', 'Franklin Gothic Demi', sans-serif;font-size:73.85px;fill:#808080;">KIV<tspan x="4513.188px 4552.673px " y="149.554px 149.554px ">eS</tspan>S</text></g><g transform="matrix(1,0,0,0.987951,0,-7.329266)"><g transform="matrix(73.850298,0,0,73.850298,315.794946,353.968139)"></g><text x="83.642px" y="353.968px" style="font-family:'FranklinGothic-Demi', 'Franklin Gothic Demi', sans-serif;font-size:73.85px;fill:#808080;">KIV<tspan x="190.56px 230.045px " y="353.968px 353.968px ">eS</tspan>S</text></g><g transform="matrix(1,0,0,0.987951,0,-7.329266)"><g transform="matrix(73.850298,0,0,73.850298,708.761139,353.968139)"></g><text x="476.609px" y="353.968px" style="font-family:'FranklinGothic-Demi', 'Franklin Gothic Demi', sans-serif;font-size:73.85px;fill:#808080;">KIV<tspan x="583.526px 623.011px " y="353.968px 353.968px ">eS</tspan>S</text></g><g transform="matrix(1,0,0,0.987951,0,-7.329266)"><g transform="matrix(73.850298,0,0,73.850298,1101.727332,353.968139)"></g><text x="869.575px" y="353.968px" style="font-family:'FranklinGothic-Demi', 'Franklin Gothic Demi', sans-serif;font-size:73.85px;fill:#808080;">KIV<tspan x="976.492px 1015.977px " y="353.968px 353.968px ">eS</tspan>S</text></g><g transform="matrix(1,0,0,0.987951,0,-7.329266)"><g transform="matrix(73.850298,0,0,73.850298,1494.693526,353.968139)"></g><text x="1262.541px" y="353.968px" style="font-family:'FranklinGothic-Demi', 'Franklin Gothic Demi', sans-serif;font-size:73.85px;fill:#808080;">KIV<tspan x="1369.458px 1408.944px " y="353.968px 353.968px ">eS</tspan>S</text></g><g transform="matrix(1,0,0,0.987951,0,-7.329266)"><g transform="matrix(73.850298,0,0,73.850298,1887.659719,353.968139)"></g><text x="1655.507px" y="353.968px" style="font-family:'FranklinGothic-Demi', 'Franklin Gothic Demi', sans-serif;font-size:73.85px;fill:#808080;">KIV<tspan x="1762.424px 1801.91px " y="353.968px 353.968px ">eS</tspan>S</text></g><g transform="matrix(1,0,0,0.987951,0,-7.329266)"><g transform="matrix(73.850298,0,0,73.850298,2280.625912,353.968139)"></g><text x="2048.473px" y="353.968px" style="font-family:'FranklinGothic-Demi', 'Franklin Gothic Demi', sans-serif;font-size:73.85px;fill:#808080;">KIV<tspan x="2155.391px 2194.876px " y="353.968px 353.968px ">eS</tspan>S</text></g><g transform="matrix(1,0,0,0.987951,0,-7.329266)"><g transform="matrix(73.850298,0,0,73.850298,2673.592105,353.968139)"></g><text x="2441.44px" y="353.968px" style="font-family:'FranklinGothic-Demi', 'Franklin Gothic Demi', sans-serif;font-size:73.85px;fill:#808080;">KIV<tspan x="2548.357px 2587.842px " y="353.968px 353.968px ">eS</tspan>S</text></g><g transform="matrix(1,0,0,0.987951,0,-7.329266)"><g transform="matrix(73.850298,0,0,73.850298,3066.558298,353.968139)"></g><text x="2834.406px" y="353.968px" style="font-family:'FranklinGothic-Demi', 'Franklin Gothic Demi', sans-serif;font-size:73.85px;fill:#808080;">KIV<tspan x="2941.323px 2980.808px " y="353.968px 353.968px ">eS</tspan>S</text></g><g transform="matrix(1,0,0,0.987951,0,-7.329266)"><g transform="matrix(73.850298,0,0,73.850298,3459.524492,353.968139)"></g><text x="3227.372px" y="353.968px" style="font-family:'FranklinGothic-Demi', 'Franklin Gothic Demi', sans-serif;font-size:73.85px;fill:#808080;">KIV<tspan x="3334.289px 3373.774px " y="353.968px 353.968px ">eS</tspan>S</text></g><g transform="matrix(1,0,0,0.987951,0,-7.329266)"><g transform="matrix(73.850298,0,0,73.850298,3852.490685,353.968139)"></g><text x="3620.338px" y="353.968px" style="font-family:'FranklinGothic-Demi', 'Franklin Gothic Demi', sans-serif;font-size:73.85px;fill:#808080;">KIV<tspan x="3727.255px 3766.741px " y="353.968px 353.968px ">eS</tspan>S</text></g><g transform="matrix(1,0,0,0.987951,0,-7.329266)"><g transform="matrix(73.850298,0,0,73.850298,4245.456878,353.968139)"></g><text x="4013.304px" y="353.968px" style="font-family:'FranklinGothic-Demi', 'Franklin Gothic Demi', sans-serif;font-size:73.85px;fill:#808080;">KIV<tspan x="4120.221px 4159.707px " y="353.968px 353.968px ">eS</tspan>S</text></g><g transform="matrix(1,0,0,0.987951,0,-7.329266)"><g transform="matrix(73.850298,0,0,73.850298,4638.423071,353.968139)"></g><text x="4406.271px" y="353.968px" style="font-family:'FranklinGothic-Demi', 'Franklin Gothic Demi', sans-serif;font-size:73.85px;fill:#808080;">KIV<tspan x="4513.188px 4552.673px " y="353.968px 353.968px ">eS</tspan>S</text></g><g transform="matrix(1,0,0,0.987951,0,-4.866179)"><g transform="matrix(73.850298,0,0,73.850298,315.794946,558.382658)"></g><text x="83.642px" y="558.383px" style="font-family:'FranklinGothic-Demi', 'Franklin Gothic Demi', sans-serif;font-size:73.85px;fill:#808080;">KIV<tspan x="190.56px 230.045px " y="558.383px 558.383px ">eS</tspan>S</text></g><g transform="matrix(1,0,0,0.987951,-0,-4.866179)"><g transform="matrix(73.850298,0,0,73.850298,708.761139,558.382658)"></g><text x="476.609px" y="558.383px" style="font-family:'FranklinGothic-Demi', 'Franklin Gothic Demi', sans-serif;font-size:73.85px;fill:#808080;">KIV<tspan x="583.526px 623.011px " y="558.383px 558.383px ">eS</tspan>S</text></g><g transform="matrix(1,0,0,0.987951,0,-4.866179)"><g transform="matrix(73.850298,0,0,73.850298,1101.727332,558.382658)"></g><text x="869.575px" y="558.383px" style="font-family:'FranklinGothic-Demi', 'Franklin Gothic Demi', sans-serif;font-size:73.85px;fill:#808080;">KIV<tspan x="976.492px 1015.977px " y="558.383px 558.383px ">eS</tspan>S</text></g><g transform="matrix(1,0,0,0.987951,0,-4.866179)"><g transform="matrix(73.850298,0,0,73.850298,1494.693526,558.382658)"></g><text x="1262.541px" y="558.383px" style="font-family:'FranklinGothic-Demi', 'Franklin Gothic Demi', sans-serif;font-size:73.85px;fill:#808080;">KIV<tspan x="1369.458px 1408.944px " y="558.383px 558.383px ">eS</tspan>S</text></g><g transform="matrix(1,0,0,0.987951,0,-4.866179)"><g transform="matrix(73.850298,0,0,73.850298,1887.659719,558.382658)"></g><text x="1655.507px" y="558.383px" style="font-family:'FranklinGothic-Demi', 'Franklin Gothic Demi', sans-serif;font-size:73.85px;fill:#808080;">KIV<tspan x="1762.424px 1801.91px " y="558.383px 558.383px ">eS</tspan>S</text></g><g transform="matrix(1,0,0,0.987951,0,-4.866179)"><g transform="matrix(73.850298,0,0,73.850298,2280.625912,558.382658)"></g><text x="2048.473px" y="558.383px" style="font-family:'FranklinGothic-Demi', 'Franklin Gothic Demi', sans-serif;font-size:73.85px;fill:#808080;">KIV<tspan x="2155.391px 2194.876px " y="558.383px 558.383px ">eS</tspan>S</text></g><g transform="matrix(1,0,0,0.987951,0,-4.866179)"><g transform="matrix(73.850298,0,0,73.850298,2673.592105,558.382658)"></g><text x="2441.44px" y="558.383px" style="font-family:'FranklinGothic-Demi', 'Franklin Gothic Demi', sans-serif;font-size:73.85px;fill:#808080;">KIV<tspan x="2548.357px 2587.842px " y="558.383px 558.383px ">eS</tspan>S</text></g><g transform="matrix(1,0,0,0.987951,0,-4.866179)"><g transform="matrix(73.850298,0,0,73.850298,3066.558298,558.382658)"></g><text x="2834.406px" y="558.383px" style="font-family:'FranklinGothic-Demi', 'Franklin Gothic Demi', sans-serif;font-size:73.85px;fill:#808080;">KIV<tspan x="2941.323px 2980.808px " y="558.383px 558.383px ">eS</tspan>S</text></g><g transform="matrix(1,0,0,0.987951,0,-4.866179)"><g transform="matrix(73.850298,0,0,73.850298,3459.524492,558.382658)"></g><text x="3227.372px" y="558.383px" style="font-family:'FranklinGothic-Demi', 'Franklin Gothic Demi', sans-serif;font-size:73.85px;fill:#808080;">KIV<tspan x="3334.289px 3373.774px " y="558.383px 558.383px ">eS</tspan>S</text></g><g transform="matrix(1,0,0,0.987951,0,-4.866179)"><g transform="matrix(73.850298,0,0,73.850298,3852.490685,558.382658)"></g><text x="3620.338px" y="558.383px" style="font-family:'FranklinGothic-Demi', 'Franklin Gothic Demi', sans-serif;font-size:73.85px;fill:#808080;">KIV<tspan x="3727.255px 3766.741px " y="558.383px 558.383px ">eS</tspan>S</text></g><g transform="matrix(1,0,0,0.987951,0,-4.866179)"><g transform="matrix(73.850298,0,0,73.850298,4245.456878,558.382658)"></g><text x="4013.304px" y="558.383px" style="font-family:'FranklinGothic-Demi', 'Franklin Gothic Demi', sans-serif;font-size:73.85px;fill:#808080;">KIV<tspan x="4120.221px 4159.707px " y="558.383px 558.383px ">eS</tspan>S</text></g><g transform="matrix(1,0,0,0.987951,0,-4.866179)"><g transform="matrix(73.850298,0,0,73.850298,4638.423071,558.382658)"></g><text x="4406.271px" y="558.383px" style="font-family:'FranklinGothic-Demi', 'Franklin Gothic Demi', sans-serif;font-size:73.85px;fill:#808080;">KIV<tspan x="4513.188px 4552.673px " y="558.383px 558.383px ">eS</tspan>S</text></g><g transform="matrix(1,0,0,0.987951,0,-2.403093)"><g transform="matrix(73.850298,0,0,73.850298,315.794946,762.797176)"></g><text x="83.642px" y="762.797px" style="font-family:'FranklinGothic-Demi', 'Franklin Gothic Demi', sans-serif;font-size:73.85px;fill:#808080;">KIV<tspan x="190.56px 230.045px " y="762.797px 762.797px ">eS</tspan>S</text></g><g transform="matrix(1,0,0,0.987951,0,-2.403093)"><g transform="matrix(73.850298,0,0,73.850298,708.761139,762.797176)"></g><text x="476.609px" y="762.797px" style="font-family:'FranklinGothic-Demi', 'Franklin Gothic Demi', sans-serif;font-size:73.85px;fill:#808080;">KIV<tspan x="583.526px 623.011px " y="762.797px 762.797px ">eS</tspan>S</text></g><g transform="matrix(1,0,0,0.987951,0,-2.403093)"><g transform="matrix(73.850298,0,0,73.850298,1101.727332,762.797176)"></g><text x="869.575px" y="762.797px" style="font-family:'FranklinGothic-Demi', 'Franklin Gothic Demi', sans-serif;font-size:73.85px;fill:#808080;">KIV<tspan x="976.492px 1015.977px " y="762.797px 762.797px ">eS</tspan>S</text></g><g transform="matrix(1,0,0,0.987951,0,-2.403093)"><g transform="matrix(73.850298,0,0,73.850298,1494.693526,762.797176)"></g><text x="1262.541px" y="762.797px" style="font-family:'FranklinGothic-Demi', 'Franklin Gothic Demi', sans-serif;font-size:73.85px;fill:#808080;">KIV<tspan x="1369.458px 1408.944px " y="762.797px 762.797px ">eS</tspan>S</text></g><g transform="matrix(1,0,0,0.987951,0,-2.403093)"><g transform="matrix(73.850298,0,0,73.850298,1887.659719,762.797176)"></g><text x="1655.507px" y="762.797px" style="font-family:'FranklinGothic-Demi', 'Franklin Gothic Demi', sans-serif;font-size:73.85px;fill:#808080;">KIV<tspan x="1762.424px 1801.91px " y="762.797px 762.797px ">eS</tspan>S</text></g><g transform="matrix(1,0,0,0.987951,0,-2.403093)"><g transform="matrix(73.850298,0,0,73.850298,2280.625912,762.797176)"></g><text x="2048.473px" y="762.797px" style="font-family:'FranklinGothic-Demi', 'Franklin Gothic Demi', sans-serif;font-size:73.85px;fill:#808080;">KIV<tspan x="2155.391px 2194.876px " y="762.797px 762.797px ">eS</tspan>S</text></g><g transform="matrix(1,0,0,0.987951,0,-2.403093)"><g transform="matrix(73.850298,0,0,73.850298,2673.592105,762.797176)"></g><text x="2441.44px" y="762.797px" style="font-family:'FranklinGothic-Demi', 'Franklin Gothic Demi', sans-serif;font-size:73.85px;fill:#808080;">KIV<tspan x="2548.357px 2587.842px " y="762.797px 762.797px ">eS</tspan>S</text></g><g transform="matrix(1,0,0,0.987951,0,-2.403093)"><g transform="matrix(73.850298,0,0,73.850298,3066.558298,762.797176)"></g><text x="2834.406px" y="762.797px" style="font-family:'FranklinGothic-Demi', 'Franklin Gothic Demi', sans-serif;font-size:73.85px;fill:#808080;">KIV<tspan x="2941.323px 2980.808px " y="762.797px 762.797px ">eS</tspan>S</text></g><g transform="matrix(1,0,0,0.987951,0,-2.403093)"><g transform="matrix(73.850298,0,0,73.850298,3459.524492,762.797176)"></g><text x="3227.372px" y="762.797px" style="font-family:'FranklinGothic-Demi', 'Franklin Gothic Demi', sans-serif;font-size:73.85px;fill:#808080;">KIV<tspan x="3334.289px 3373.774px " y="762.797px 762.797px ">eS</tspan>S</text></g><g transform="matrix(1,0,0,0.987951,0,-2.403093)"><g transform="matrix(73.850298,0,0,73.850298,3852.490685,762.797176)"></g><text x="3620.338px" y="762.797px" style="font-family:'FranklinGothic-Demi', 'Franklin Gothic Demi', sans-serif;font-size:73.85px;fill:#808080;">KIV<tspan x="3727.255px 3766.741px " y="762.797px 762.797px ">eS</tspan>S</text></g><g transform="matrix(1,0,0,0.987951,0,-2.403093)"><g transform="matrix(73.850298,0,0,73.850298,4245.456878,762.797176)"></g><text x="4013.304px" y="762.797px" style="font-family:'FranklinGothic-Demi', 'Franklin Gothic Demi', sans-serif;font-size:73.85px;fill:#808080;">KIV<tspan x="4120.221px 4159.707px " y="762.797px 762.797px ">eS</tspan>S</text></g><g transform="matrix(1,0,0,0.987951,0,-2.403093)"><g transform="matrix(73.850298,0,0,73.850298,4638.423071,762.797176)"></g><text x="4406.271px" y="762.797px" style="font-family:'FranklinGothic-Demi', 'Franklin Gothic Demi', sans-serif;font-size:73.85px;fill:#808080;">KIV<tspan x="4513.188px 4552.673px " y="762.797px 762.797px ">eS</tspan>S</text></g><g transform="matrix(1,0,0,0.987951,-0,0.059994)"><g transform="matrix(73.850298,0,0,73.850298,315.794946,967.211695)"></g><text x="83.642px" y="967.212px" style="font-family:'FranklinGothic-Demi', 'Franklin Gothic Demi', sans-serif;font-size:73.85px;fill:#808080;">KIV<tspan x="190.56px 230.045px " y="967.212px 967.212px ">eS</tspan>S</text></g><g transform="matrix(1,0,0,0.987951,0,0.059994)"><g transform="matrix(73.850298,0,0,73.850298,708.761139,967.211695)"></g><text x="476.609px" y="967.212px" style="font-family:'FranklinGothic-Demi', 'Franklin Gothic Demi', sans-serif;font-size:73.85px;fill:#808080;">KIV<tspan x="583.526px 623.011px " y="967.212px 967.212px ">eS</tspan>S</text></g><g transform="matrix(1,0,0,0.987951,0,0.059994)"><g transform="matrix(73.850298,0,0,73.850298,1101.727332,967.211695)"></g><text x="869.575px" y="967.212px" style="font-family:'FranklinGothic-Demi', 'Franklin Gothic Demi', sans-serif;font-size:73.85px;fill:#808080;">KIV<tspan x="976.492px 1015.977px " y="967.212px 967.212px ">eS</tspan>S</text></g><g transform="matrix(1,0,0,0.987951,0,0.059994)"><g transform="matrix(73.850298,0,0,73.850298,1494.693526,967.211695)"></g><text x="1262.541px" y="967.212px" style="font-family:'FranklinGothic-Demi', 'Franklin Gothic Demi', sans-serif;font-size:73.85px;fill:#808080;">KIV<tspan x="1369.458px 1408.944px " y="967.212px 967.212px ">eS</tspan>S</text></g><g transform="matrix(1,0,0,0.987951,0,0.059994)"><g transform="matrix(73.850298,0,0,73.850298,1887.659719,967.211695)"></g><text x="1655.507px" y="967.212px" style="font-family:'FranklinGothic-Demi', 'Franklin Gothic Demi', sans-serif;font-size:73.85px;fill:#808080;">KIV<tspan x="1762.424px 1801.91px " y="967.212px 967.212px ">eS</tspan>S</text></g><g transform="matrix(1,0,0,0.987951,0,0.059994)"><g transform="matrix(73.850298,0,0,73.850298,2280.625912,967.211695)"></g><text x="2048.473px" y="967.212px" style="font-family:'FranklinGothic-Demi', 'Franklin Gothic Demi', sans-serif;font-size:73.85px;fill:#808080;">KIV<tspan x="2155.391px 2194.876px " y="967.212px 967.212px ">eS</tspan>S</text></g><g transform="matrix(1,0,0,0.987951,0,0.059994)"><g transform="matrix(73.850298,0,0,73.850298,2673.592105,967.211695)"></g><text x="2441.44px" y="967.212px" style="font-family:'FranklinGothic-Demi', 'Franklin Gothic Demi', sans-serif;font-size:73.85px;fill:#808080;">KIV<tspan x="2548.357px 2587.842px " y="967.212px 967.212px ">eS</tspan>S</text></g><g transform="matrix(1,0,0,0.987951,0,0.059994)"><g transform="matrix(73.850298,0,0,73.850298,3066.558298,967.211695)"></g><text x="2834.406px" y="967.212px" style="font-family:'FranklinGothic-Demi', 'Franklin Gothic Demi', sans-serif;font-size:73.85px;fill:#808080;">KIV<tspan x="2941.323px 2980.808px " y="967.212px 967.212px ">eS</tspan>S</text></g><g transform="matrix(1,0,0,0.987951,0,0.059994)"><g transform="matrix(73.850298,0,0,73.850298,3459.524492,967.211695)"></g><text x="3227.372px" y="967.212px" style="font-family:'FranklinGothic-Demi', 'Franklin Gothic Demi', sans-serif;font-size:73.85px;fill:#808080;">KIV<tspan x="3334.289px 3373.774px " y="967.212px 967.212px ">eS</tspan>S</text></g><g transform="matrix(1,0,0,0.987951,0,0.059994)"><g transform="matrix(73.850298,0,0,73.850298,3852.490685,967.211695)"></g><text x="3620.338px" y="967.212px" style="font-family:'FranklinGothic-Demi', 'Franklin Gothic Demi', sans-serif;font-size:73.85px;fill:#808080;">KIV<tspan x="3727.255px 3766.741px " y="967.212px 967.212px ">eS</tspan>S</text></g><g transform="matrix(1,0,0,0.987951,0,0.059994)"><g transform="matrix(73.850298,0,0,73.850298,4245.456878,967.211695)"></g><text x="4013.304px" y="967.212px" style="font-family:'FranklinGothic-Demi', 'Franklin Gothic Demi', sans-serif;font-size:73.85px;fill:#808080;">KIV<tspan x="4120.221px 4159.707px " y="967.212px 967.212px ">eS</tspan>S</text></g><g transform="matrix(1,0,0,0.987951,0,0.059994)"><g transform="matrix(73.850298,0,0,73.850298,4638.423071,967.211695)"></g><text x="4406.271px" y="967.212px" style="font-family:'FranklinGothic-Demi', 'Franklin Gothic Demi', sans-serif;font-size:73.85px;fill:#808080;">KIV<tspan x="4513.188px 4552.673px " y="967.212px 967.212px ">eS</tspan>S</text></g><g transform="matrix(1,0,0,0.987951,0,2.523081)"><g transform="matrix(73.850298,0,0,73.850298,315.794946,1171.626214)"></g><text x="83.642px" y="1171.626px" style="font-family:'FranklinGothic-Demi', 'Franklin Gothic Demi', sans-serif;font-size:73.85px;fill:#808080;">KIV<tspan x="190.56px 230.045px " y="1171.626px 1171.626px ">eS</tspan>S</text></g><g transform="matrix(1,0,0,0.987951,-0,2.523081)"><g transform="matrix(73.850298,0,0,73.850298,708.761139,1171.626214)"></g><text x="476.609px" y="1171.626px" style="font-family:'FranklinGothic-Demi', 'Franklin Gothic Demi', sans-serif;font-size:73.85px;fill:#808080;">KIV<tspan x="583.526px 623.011px " y="1171.626px 1171.626px ">eS</tspan>S</text></g><g transform="matrix(1,0,0,0.987951,0,2.523081)"><g transform="matrix(73.850298,0,0,73.850298,1101.727332,1171.626214)"></g><text x="869.575px" y="1171.626px" style="font-family:'FranklinGothic-Demi', 'Franklin Gothic Demi', sans-serif;font-size:73.85px;fill:#808080;">KIV<tspan x="976.492px 1015.977px " y="1171.626px 1171.626px ">eS</tspan>S</text></g><g transform="matrix(1,0,0,0.987951,0,2.523081)"><g transform="matrix(73.850298,0,0,73.850298,1494.693526,1171.626214)"></g><text x="1262.541px" y="1171.626px" style="font-family:'FranklinGothic-Demi', 'Franklin Gothic Demi', sans-serif;font-size:73.85px;fill:#808080;">KIV<tspan x="1369.458px 1408.944px " y="1171.626px 1171.626px ">eS</tspan>S</text></g><g transform="matrix(1,0,0,0.987951,0,2.523081)"><g transform="matrix(73.850298,0,0,73.850298,1887.659719,1171.626214)"></g><text x="1655.507px" y="1171.626px" style="font-family:'FranklinGothic-Demi', 'Franklin Gothic Demi', sans-serif;font-size:73.85px;fill:#808080;">KIV<tspan x="1762.424px 1801.91px " y="1171.626px 1171.626px ">eS</tspan>S</text></g><g transform="matrix(1,0,0,0.987951,0,2.523081)"><g transform="matrix(73.850298,0,0,73.850298,2280.625912,1171.626214)"></g><text x="2048.473px" y="1171.626px" style="font-family:'FranklinGothic-Demi', 'Franklin Gothic Demi', sans-serif;font-size:73.85px;fill:#808080;">KIV<tspan x="2155.391px 2194.876px " y="1171.626px 1171.626px ">eS</tspan>S</text></g><g transform="matrix(1,0,0,0.987951,0,2.523081)"><g transform="matrix(73.850298,0,0,73.850298,2673.592105,1171.626214)"></g><text x="2441.44px" y="1171.626px" style="font-family:'FranklinGothic-Demi', 'Franklin Gothic Demi', sans-serif;font-size:73.85px;fill:#808080;">KIV<tspan x="2548.357px 2587.842px " y="1171.626px 1171.626px ">eS</tspan>S</text></g><g transform="matrix(1,0,0,0.987951,0,2.523081)"><g transform="matrix(73.850298,0,0,73.850298,3066.558298,1171.626214)"></g><text x="2834.406px" y="1171.626px" style="font-family:'FranklinGothic-Demi', 'Franklin Gothic Demi', sans-serif;font-size:73.85px;fill:#808080;">KIV<tspan x="2941.323px 2980.808px " y="1171.626px 1171.626px ">eS</tspan>S</text></g><g transform="matrix(1,0,0,0.987951,0,2.523081)"><g transform="matrix(73.850298,0,0,73.850298,3459.524492,1171.626214)"></g><text x="3227.372px" y="1171.626px" style="font-family:'FranklinGothic-Demi', 'Franklin Gothic Demi', sans-serif;font-size:73.85px;fill:#808080;">KIV<tspan x="3334.289px 3373.774px " y="1171.626px 1171.626px ">eS</tspan>S</text></g><g transform="matrix(1,0,0,0.987951,0,2.523081)"><g transform="matrix(73.850298,0,0,73.850298,3852.490685,1171.626214)"></g><text x="3620.338px" y="1171.626px" style="font-family:'FranklinGothic-Demi', 'Franklin Gothic Demi', sans-serif;font-size:73.85px;fill:#808080;">KIV<tspan x="3727.255px 3766.741px " y="1171.626px 1171.626px ">eS</tspan>S</text></g><g transform="matrix(1,0,0,0.987951,0,2.523081)"><g transform="matrix(73.850298,0,0,73.850298,4245.456878,1171.626214)"></g><text x="4013.304px" y="1171.626px" style="font-family:'FranklinGothic-Demi', 'Franklin Gothic Demi', sans-serif;font-size:73.85px;fill:#808080;">KIV<tspan x="4120.221px 4159.707px " y="1171.626px 1171.626px ">eS</tspan>S</text></g><g transform="matrix(1,0,0,0.987951,0,2.523081)"><g transform="matrix(73.850298,0,0,73.850298,4638.423071,1171.626214)"></g><text x="4406.271px" y="1171.626px" style="font-family:'FranklinGothic-Demi', 'Franklin Gothic Demi', sans-serif;font-size:73.85px;fill:#808080;">KIV<tspan x="4513.188px 4552.673px " y="1171.626px 1171.626px ">eS</tspan>S</text></g><g transform="matrix(1,0,0,0.987951,0,4.986167)"><g transform="matrix(73.850298,0,0,73.850298,315.794946,1376.040733)"></g><text x="83.642px" y="1376.041px" style="font-family:'FranklinGothic-Demi', 'Franklin Gothic Demi', sans-serif;font-size:73.85px;fill:#808080;">KIV<tspan x="190.56px 230.045px " y="1376.041px 1376.041px ">eS</tspan>S</text></g><g transform="matrix(1,0,0,0.987951,0,4.986167)"><g transform="matrix(73.850298,0,0,73.850298,708.761139,1376.040733)"></g><text x="476.609px" y="1376.041px" style="font-family:'FranklinGothic-Demi', 'Franklin Gothic Demi', sans-serif;font-size:73.85px;fill:#808080;">KIV<tspan x="583.526px 623.011px " y="1376.041px 1376.041px ">eS</tspan>S</text></g><g transform="matrix(1,0,0,0.987951,0,4.986167)"><g transform="matrix(73.850298,0,0,73.850298,1101.727332,1376.040733)"></g><text x="869.575px" y="1376.041px" style="font-family:'FranklinGothic-Demi', 'Franklin Gothic Demi', sans-serif;font-size:73.85px;fill:#808080;">KIV<tspan x="976.492px 1015.977px " y="1376.041px 1376.041px ">eS</tspan>S</text></g><g transform="matrix(1,0,0,0.987951,0,4.986167)"><g transform="matrix(73.850298,0,0,73.850298,1494.693526,1376.040733)"></g><text x="1262.541px" y="1376.041px" style="font-family:'FranklinGothic-Demi', 'Franklin Gothic Demi', sans-serif;font-size:73.85px;fill:#808080;">KIV<tspan x="1369.458px 1408.944px " y="1376.041px 1376.041px ">eS</tspan>S</text></g><g transform="matrix(1,0,0,0.987951,0,4.986167)"><g transform="matrix(73.850298,0,0,73.850298,1887.659719,1376.040733)"></g><text x="1655.507px" y="1376.041px" style="font-family:'FranklinGothic-Demi', 'Franklin Gothic Demi', sans-serif;font-size:73.85px;fill:#808080;">KIV<tspan x="1762.424px 1801.91px " y="1376.041px 1376.041px ">eS</tspan>S</text></g><g transform="matrix(1,0,0,0.987951,0,4.986167)"><g transform="matrix(73.850298,0,0,73.850298,2280.625912,1376.040733)"></g><text x="2048.473px" y="1376.041px" style="font-family:'FranklinGothic-Demi', 'Franklin Gothic Demi', sans-serif;font-size:73.85px;fill:#808080;">KIV<tspan x="2155.391px 2194.876px " y="1376.041px 1376.041px ">eS</tspan>S</text></g><g transform="matrix(1,0,0,0.987951,0,4.986167)"><g transform="matrix(73.850298,0,0,73.850298,2673.592105,1376.040733)"></g><text x="2441.44px" y="1376.041px" style="font-family:'FranklinGothic-Demi', 'Franklin Gothic Demi', sans-serif;font-size:73.85px;fill:#808080;">KIV<tspan x="2548.357px 2587.842px " y="1376.041px 1376.041px ">eS</tspan>S</text></g><g transform="matrix(1,0,0,0.987951,0,4.986167)"><g transform="matrix(73.850298,0,0,73.850298,3066.558298,1376.040733)"></g><text x="2834.406px" y="1376.041px" style="font-family:'FranklinGothic-Demi', 'Franklin Gothic Demi', sans-serif;font-size:73.85px;fill:#808080;">KIV<tspan x="2941.323px 2980.808px " y="1376.041px 1376.041px ">eS</tspan>S</text></g><g transform="matrix(1,0,0,0.987951,0,4.986167)"><g transform="matrix(73.850298,0,0,73.850298,3459.524492,1376.040733)"></g><text x="3227.372px" y="1376.041px" style="font-family:'FranklinGothic-Demi', 'Franklin Gothic Demi', sans-serif;font-size:73.85px;fill:#808080;">KIV<tspan x="3334.289px 3373.774px " y="1376.041px 1376.041px ">eS</tspan>S</text></g><g transform="matrix(1,0,0,0.987951,0,4.986167)"><g transform="matrix(73.850298,0,0,73.850298,3852.490685,1376.040733)"></g><text x="3620.338px" y="1376.041px" style="font-family:'FranklinGothic-Demi', 'Franklin Gothic Demi', sans-serif;font-size:73.85px;fill:#808080;">KIV<tspan x="3727.255px 3766.741px " y="1376.041px 1376.041px ">eS</tspan>S</text></g><g transform="matrix(1,0,0,0.987951,0,4.986167)"><g transform="matrix(73.850298,0,0,73.850298,4245.456878,1376.040733)"></g><text x="4013.304px" y="1376.041px" style="font-family:'FranklinGothic-Demi', 'Franklin Gothic Demi', sans-serif;font-size:73.85px;fill:#808080;">KIV<tspan x="4120.221px 4159.707px " y="1376.041px 1376.041px ">eS</tspan>S</text></g><g transform="matrix(1,0,0,0.987951,0,4.986167)"><g transform="matrix(73.850298,0,0,73.850298,4638.423071,1376.040733)"></g><text x="4406.271px" y="1376.041px" style="font-family:'FranklinGothic-Demi', 'Franklin Gothic Demi', sans-serif;font-size:73.85px;fill:#808080;">KIV<tspan x="4513.188px 4552.673px " y="1376.041px 1376.041px ">eS</tspan>S</text></g><g transform="matrix(1,0,0,0.987951,-0,7.449254)"><g transform="matrix(73.850298,0,0,73.850298,315.794946,1580.455252)"></g><text x="83.642px" y="1580.455px" style="font-family:'FranklinGothic-Demi', 'Franklin Gothic Demi', sans-serif;font-size:73.85px;fill:#808080;">KIV<tspan x="190.56px 230.045px " y="1580.455px 1580.455px ">eS</tspan>S</text></g><g transform="matrix(1,0,0,0.987951,0,7.449254)"><g transform="matrix(73.850298,0,0,73.850298,708.761139,1580.455252)"></g><text x="476.609px" y="1580.455px" style="font-family:'FranklinGothic-Demi', 'Franklin Gothic Demi', sans-serif;font-size:73.85px;fill:#808080;">KIV<tspan x="583.526px 623.011px " y="1580.455px 1580.455px ">eS</tspan>S</text></g><g transform="matrix(1,0,0,0.987951,0,7.449254)"><g transform="matrix(73.850298,0,0,73.850298,1101.727332,1580.455252)"></g><text x="869.575px" y="1580.455px" style="font-family:'FranklinGothic-Demi', 'Franklin Gothic Demi', sans-serif;font-size:73.85px;fill:#808080;">KIV<tspan x="976.492px 1015.977px " y="1580.455px 1580.455px ">eS</tspan>S</text></g><g transform="matrix(1,0,0,0.987951,0,7.449254)"><g transform="matrix(73.850298,0,0,73.850298,1494.693526,1580.455252)"></g><text x="1262.541px" y="1580.455px" style="font-family:'FranklinGothic-Demi', 'Franklin Gothic Demi', sans-serif;font-size:73.85px;fill:#808080;">KIV<tspan x="1369.458px 1408.944px " y="1580.455px 1580.455px ">eS</tspan>S</text></g><g transform="matrix(1,0,0,0.987951,0,7.449254)"><g transform="matrix(73.850298,0,0,73.850298,1887.659719,1580.455252)"></g><text x="1655.507px" y="1580.455px" style="font-family:'FranklinGothic-Demi', 'Franklin Gothic Demi', sans-serif;font-size:73.85px;fill:#808080;">KIV<tspan x="1762.424px 1801.91px " y="1580.455px 1580.455px ">eS</tspan>S</text></g><g transform="matrix(1,0,0,0.987951,0,7.449254)"><g transform="matrix(73.850298,0,0,73.850298,2280.625912,1580.455252)"></g><text x="2048.473px" y="1580.455px" style="font-family:'FranklinGothic-Demi', 'Franklin Gothic Demi', sans-serif;font-size:73.85px;fill:#808080;">KIV<tspan x="2155.391px 2194.876px " y="1580.455px 1580.455px ">eS</tspan>S</text></g><g transform="matrix(1,0,0,0.987951,0,7.449254)"><g transform="matrix(73.850298,0,0,73.850298,2673.592105,1580.455252)"></g><text x="2441.44px" y="1580.455px" style="font-family:'FranklinGothic-Demi', 'Franklin Gothic Demi', sans-serif;font-size:73.85px;fill:#808080;">KIV<tspan x="2548.357px 2587.842px " y="1580.455px 1580.455px ">eS</tspan>S</text></g><g transform="matrix(1,0,0,0.987951,0,7.449254)"><g transform="matrix(73.850298,0,0,73.850298,3066.558298,1580.455252)"></g><text x="2834.406px" y="1580.455px" style="font-family:'FranklinGothic-Demi', 'Franklin Gothic Demi', sans-serif;font-size:73.85px;fill:#808080;">KIV<tspan x="2941.323px 2980.808px " y="1580.455px 1580.455px ">eS</tspan>S</text></g><g transform="matrix(1,0,0,0.987951,0,7.449254)"><g transform="matrix(73.850298,0,0,73.850298,3459.524492,1580.455252)"></g><text x="3227.372px" y="1580.455px" style="font-family:'FranklinGothic-Demi', 'Franklin Gothic Demi', sans-serif;font-size:73.85px;fill:#808080;">KIV<tspan x="3334.289px 3373.774px " y="1580.455px 1580.455px ">eS</tspan>S</text></g><g transform="matrix(1,0,0,0.987951,0,7.449254)"><g transform="matrix(73.850298,0,0,73.850298,3852.490685,1580.455252)"></g><text x="3620.338px" y="1580.455px" style="font-family:'FranklinGothic-Demi', 'Franklin Gothic Demi', sans-serif;font-size:73.85px;fill:#808080;">KIV<tspan x="3727.255px 3766.741px " y="1580.455px 1580.455px ">eS</tspan>S</text></g><g transform="matrix(1,0,0,0.987951,0,7.449254)"><g transform="matrix(73.850298,0,0,73.850298,4245.456878,1580.455252)"></g><text x="4013.304px" y="1580.455px" style="font-family:'FranklinGothic-Demi', 'Franklin Gothic Demi', sans-serif;font-size:73.85px;fill:#808080;">KIV<tspan x="4120.221px 4159.707px " y="1580.455px 1580.455px ">eS</tspan>S</text></g><g transform="matrix(1,0,0,0.987951,0,7.449254)"><g transform="matrix(73.850298,0,0,73.850298,4638.423071,1580.455252)"></g><text x="4406.271px" y="1580.455px" style="font-family:'FranklinGothic-Demi', 'Franklin Gothic Demi', sans-serif;font-size:73.85px;fill:#808080;">KIV<tspan x="4513.188px 4552.673px " y="1580.455px 1580.455px ">eS</tspan>S</text></g><g transform="matrix(1,0,0,0.987951,0,9.91234)"><g transform="matrix(73.850298,0,0,73.850298,315.794946,1784.869771)"></g><text x="83.642px" y="1784.87px" style="font-family:'FranklinGothic-Demi', 'Franklin Gothic Demi', sans-serif;font-size:73.85px;fill:#808080;">KIV<tspan x="190.56px 230.045px " y="1784.87px 1784.87px ">eS</tspan>S</text></g><g transform="matrix(1,0,0,0.987951,-0,9.91234)"><g transform="matrix(73.850298,0,0,73.850298,708.761139,1784.869771)"></g><text x="476.609px" y="1784.87px" style="font-family:'FranklinGothic-Demi', 'Franklin Gothic Demi', sans-serif;font-size:73.85px;fill:#808080;">KIV<tspan x="583.526px 623.011px " y="1784.87px 1784.87px ">eS</tspan>S</text></g><g transform="matrix(1,0,0,0.987951,0,9.91234)"><g transform="matrix(73.850298,0,0,73.850298,1101.727332,1784.869771)"></g><text x="869.575px" y="1784.87px" style="font-family:'FranklinGothic-Demi', 'Franklin Gothic Demi', sans-serif;font-size:73.85px;fill:#808080;">KIV<tspan x="976.492px 1015.977px " y="1784.87px 1784.87px ">eS</tspan>S</text></g><g transform="matrix(1,0,0,0.987951,0,9.91234)"><g transform="matrix(73.850298,0,0,73.850298,1494.693526,1784.869771)"></g><text x="1262.541px" y="1784.87px" style="font-family:'FranklinGothic-Demi', 'Franklin Gothic Demi', sans-serif;font-size:73.85px;fill:#808080;">KIV<tspan x="1369.458px 1408.944px " y="1784.87px 1784.87px ">eS</tspan>S</text></g><g transform="matrix(1,0,0,0.987951,0,9.91234)"><g transform="matrix(73.850298,0,0,73.850298,1887.659719,1784.869771)"></g><text x="1655.507px" y="1784.87px" style="font-family:'FranklinGothic-Demi', 'Franklin Gothic Demi', sans-serif;font-size:73.85px;fill:#808080;">KIV<tspan x="1762.424px 1801.91px " y="1784.87px 1784.87px ">eS</tspan>S</text></g><g transform="matrix(1,0,0,0.987951,0,9.91234)"><g transform="matrix(73.850298,0,0,73.850298,2280.625912,1784.869771)"></g><text x="2048.473px" y="1784.87px" style="font-family:'FranklinGothic-Demi', 'Franklin Gothic Demi', sans-serif;font-size:73.85px;fill:#808080;">KIV<tspan x="2155.391px 2194.876px " y="1784.87px 1784.87px ">eS</tspan>S</text></g><g transform="matrix(1,0,0,0.987951,0,9.91234)"><g transform="matrix(73.850298,0,0,73.850298,2673.592105,1784.869771)"></g><text x="2441.44px" y="1784.87px" style="font-family:'FranklinGothic-Demi', 'Franklin Gothic Demi', sans-serif;font-size:73.85px;fill:#808080;">KIV<tspan x="2548.357px 2587.842px " y="1784.87px 1784.87px ">eS</tspan>S</text></g><g transform="matrix(1,0,0,0.987951,0,9.91234)"><g transform="matrix(73.850298,0,0,73.850298,3066.558298,1784.869771)"></g><text x="2834.406px" y="1784.87px" style="font-family:'FranklinGothic-Demi', 'Franklin Gothic Demi', sans-serif;font-size:73.85px;fill:#808080;">KIV<tspan x="2941.323px 2980.808px " y="1784.87px 1784.87px ">eS</tspan>S</text></g><g transform="matrix(1,0,0,0.987951,0,9.91234)"><g transform="matrix(73.850298,0,0,73.850298,3459.524492,1784.869771)"></g><text x="3227.372px" y="1784.87px" style="font-family:'FranklinGothic-Demi', 'Franklin Gothic Demi', sans-serif;font-size:73.85px;fill:#808080;">KIV<tspan x="3334.289px 3373.774px " y="1784.87px 1784.87px ">eS</tspan>S</text></g><g transform="matrix(1,0,0,0.987951,0,9.91234)"><g transform="matrix(73.850298,0,0,73.850298,3852.490685,1784.869771)"></g><text x="3620.338px" y="1784.87px" style="font-family:'FranklinGothic-Demi', 'Franklin Gothic Demi', sans-serif;font-size:73.85px;fill:#808080;">KIV<tspan x="3727.255px 3766.741px " y="1784.87px 1784.87px ">eS</tspan>S</text></g><g transform="matrix(1,0,0,0.987951,0,9.91234)"><g transform="matrix(73.850298,0,0,73.850298,4245.456878,1784.869771)"></g><text x="4013.304px" y="1784.87px" style="font-family:'FranklinGothic-Demi', 'Franklin Gothic Demi', sans-serif;font-size:73.85px;fill:#808080;">KIV<tspan x="4120.221px 4159.707px " y="1784.87px 1784.87px ">eS</tspan>S</text></g><g transform="matrix(1,0,0,0.987951,0,9.91234)"><g transform="matrix(73.850298,0,0,73.850298,4638.423071,1784.869771)"></g><text x="4406.271px" y="1784.87px" style="font-family:'FranklinGothic-Demi', 'Franklin Gothic Demi', sans-serif;font-size:73.85px;fill:#808080;">KIV<tspan x="4513.188px 4552.673px " y="1784.87px 1784.87px ">eS</tspan>S</text></g><g transform="matrix(1,0,0,0.987951,-0,12.375427)"><g transform="matrix(73.850298,0,0,73.850298,315.794946,1989.28429)"></g><text x="83.642px" y="1989.284px" style="font-family:'FranklinGothic-Demi', 'Franklin Gothic Demi', sans-serif;font-size:73.85px;fill:#808080;">KIV<tspan x="190.56px 230.045px " y="1989.284px 1989.284px ">eS</tspan>S</text></g><g transform="matrix(1,0,0,0.987951,-0,12.375427)"><g transform="matrix(73.850298,0,0,73.850298,708.761139,1989.28429)"></g><text x="476.609px" y="1989.284px" style="font-family:'FranklinGothic-Demi', 'Franklin Gothic Demi', sans-serif;font-size:73.85px;fill:#808080;">KIV<tspan x="583.526px 623.011px " y="1989.284px 1989.284px ">eS</tspan>S</text></g><g transform="matrix(1,0,0,0.987951,0,12.375427)"><g transform="matrix(73.850298,0,0,73.850298,1101.727332,1989.28429)"></g><text x="869.575px" y="1989.284px" style="font-family:'FranklinGothic-Demi', 'Franklin Gothic Demi', sans-serif;font-size:73.85px;fill:#808080;">KIV<tspan x="976.492px 1015.977px " y="1989.284px 1989.284px ">eS</tspan>S</text></g><g transform="matrix(1,0,0,0.987951,0,12.375427)"><g transform="matrix(73.850298,0,0,73.850298,1494.693526,1989.28429)"></g><text x="1262.541px" y="1989.284px" style="font-family:'FranklinGothic-Demi', 'Franklin Gothic Demi', sans-serif;font-size:73.85px;fill:#808080;">KIV<tspan x="1369.458px 1408.944px " y="1989.284px 1989.284px ">eS</tspan>S</text></g><g transform="matrix(1,0,0,0.987951,0,12.375427)"><g transform="matrix(73.850298,0,0,73.850298,1887.659719,1989.28429)"></g><text x="1655.507px" y="1989.284px" style="font-family:'FranklinGothic-Demi', 'Franklin Gothic Demi', sans-serif;font-size:73.85px;fill:#808080;">KIV<tspan x="1762.424px 1801.91px " y="1989.284px 1989.284px ">eS</tspan>S</text></g><g transform="matrix(1,0,0,0.987951,0,12.375427)"><g transform="matrix(73.850298,0,0,73.850298,2280.625912,1989.28429)"></g><text x="2048.473px" y="1989.284px" style="font-family:'FranklinGothic-Demi', 'Franklin Gothic Demi', sans-serif;font-size:73.85px;fill:#808080;">KIV<tspan x="2155.391px 2194.876px " y="1989.284px 1989.284px ">eS</tspan>S</text></g><g transform="matrix(1,0,0,0.987951,0,12.375427)"><g transform="matrix(73.850298,0,0,73.850298,2673.592105,1989.28429)"></g><text x="2441.44px" y="1989.284px" style="font-family:'FranklinGothic-Demi', 'Franklin Gothic Demi', sans-serif;font-size:73.85px;fill:#808080;">KIV<tspan x="2548.357px 2587.842px " y="1989.284px 1989.284px ">eS</tspan>S</text></g><g transform="matrix(1,0,0,0.987951,0,12.375427)"><g transform="matrix(73.850298,0,0,73.850298,3066.558298,1989.28429)"></g><text x="2834.406px" y="1989.284px" style="font-family:'FranklinGothic-Demi', 'Franklin Gothic Demi', sans-serif;font-size:73.85px;fill:#808080;">KIV<tspan x="2941.323px 2980.808px " y="1989.284px 1989.284px ">eS</tspan>S</text></g><g transform="matrix(1,0,0,0.987951,0,12.375427)"><g transform="matrix(73.850298,0,0,73.850298,3459.524492,1989.28429)"></g><text x="3227.372px" y="1989.284px" style="font-family:'FranklinGothic-Demi', 'Franklin Gothic Demi', sans-serif;font-size:73.85px;fill:#808080;">KIV<tspan x="3334.289px 3373.774px " y="1989.284px 1989.284px ">eS</tspan>S</text></g><g transform="matrix(1,0,0,0.987951,0,12.375427)"><g transform="matrix(73.850298,0,0,73.850298,3852.490685,1989.28429)"></g><text x="3620.338px" y="1989.284px" style="font-family:'FranklinGothic-Demi', 'Franklin Gothic Demi', sans-serif;font-size:73.85px;fill:#808080;">KIV<tspan x="3727.255px 3766.741px " y="1989.284px 1989.284px ">eS</tspan>S</text></g><g transform="matrix(1,0,0,0.987951,0,12.375427)"><g transform="matrix(73.850298,0,0,73.850298,4245.456878,1989.28429)"></g><text x="4013.304px" y="1989.284px" style="font-family:'FranklinGothic-Demi', 'Franklin Gothic Demi', sans-serif;font-size:73.85px;fill:#808080;">KIV<tspan x="4120.221px 4159.707px " y="1989.284px 1989.284px ">eS</tspan>S</text></g><g transform="matrix(1,0,0,0.987951,0,12.375427)"><g transform="matrix(73.850298,0,0,73.850298,4638.423071,1989.28429)"></g><text x="4406.271px" y="1989.284px" style="font-family:'FranklinGothic-Demi', 'Franklin Gothic Demi', sans-serif;font-size:73.85px;fill:#808080;">KIV<tspan x="4513.188px 4552.673px " y="1989.284px 1989.284px ">eS</tspan>S</text></g><g transform="matrix(1,0,0,0.987951,-0,14.838514)"><g transform="matrix(73.850298,0,0,73.850298,315.794946,2193.698809)"></g><text x="83.642px" y="2193.699px" style="font-family:'FranklinGothic-Demi', 'Franklin Gothic Demi', sans-serif;font-size:73.85px;fill:#808080;">KIV<tspan x="190.56px 230.045px " y="2193.699px 2193.699px ">eS</tspan>S</text></g><g transform="matrix(1,0,0,0.987951,0,14.838514)"><g transform="matrix(73.850298,0,0,73.850298,708.761139,2193.698809)"></g><text x="476.609px" y="2193.699px" style="font-family:'FranklinGothic-Demi', 'Franklin Gothic Demi', sans-serif;font-size:73.85px;fill:#808080;">KIV<tspan x="583.526px 623.011px " y="2193.699px 2193.699px ">eS</tspan>S</text></g><g transform="matrix(1,0,0,0.987951,0,14.838514)"><g transform="matrix(73.850298,0,0,73.850298,1101.727332,2193.698809)"></g><text x="869.575px" y="2193.699px" style="font-family:'FranklinGothic-Demi', 'Franklin Gothic Demi', sans-serif;font-size:73.85px;fill:#808080;">KIV<tspan x="976.492px 1015.977px " y="2193.699px 2193.699px ">eS</tspan>S</text></g><g transform="matrix(1,0,0,0.987951,0,14.838514)"><g transform="matrix(73.850298,0,0,73.850298,1494.693526,2193.698809)"></g><text x="1262.541px" y="2193.699px" style="font-family:'FranklinGothic-Demi', 'Franklin Gothic Demi', sans-serif;font-size:73.85px;fill:#808080;">KIV<tspan x="1369.458px 1408.944px " y="2193.699px 2193.699px ">eS</tspan>S</text></g><g transform="matrix(1,0,0,0.987951,0,14.838514)"><g transform="matrix(73.850298,0,0,73.850298,1887.659719,2193.698809)"></g><text x="1655.507px" y="2193.699px" style="font-family:'FranklinGothic-Demi', 'Franklin Gothic Demi', sans-serif;font-size:73.85px;fill:#808080;">KIV<tspan x="1762.424px 1801.91px " y="2193.699px 2193.699px ">eS</tspan>S</text></g><g transform="matrix(1,0,0,0.987951,0,14.838514)"><g transform="matrix(73.850298,0,0,73.850298,2280.625912,2193.698809)"></g><text x="2048.473px" y="2193.699px" style="font-family:'FranklinGothic-Demi', 'Franklin Gothic Demi', sans-serif;font-size:73.85px;fill:#808080;">KIV<tspan x="2155.391px 2194.876px " y="2193.699px 2193.699px ">eS</tspan>S</text></g><g transform="matrix(1,0,0,0.987951,0,14.838514)"><g transform="matrix(73.850298,0,0,73.850298,2673.592105,2193.698809)"></g><text x="2441.44px" y="2193.699px" style="font-family:'FranklinGothic-Demi', 'Franklin Gothic Demi', sans-serif;font-size:73.85px;fill:#808080;">KIV<tspan x="2548.357px 2587.842px " y="2193.699px 2193.699px ">eS</tspan>S</text></g><g transform="matrix(1,0,0,0.987951,0,14.838514)"><g transform="matrix(73.850298,0,0,73.850298,3066.558298,2193.698809)"></g><text x="2834.406px" y="2193.699px" style="font-family:'FranklinGothic-Demi', 'Franklin Gothic Demi', sans-serif;font-size:73.85px;fill:#808080;">KIV<tspan x="2941.323px 2980.808px " y="2193.699px 2193.699px ">eS</tspan>S</text></g><g transform="matrix(1,0,0,0.987951,0,14.838514)"><g transform="matrix(73.850298,0,0,73.850298,3459.524492,2193.698809)"></g><text x="3227.372px" y="2193.699px" style="font-family:'FranklinGothic-Demi', 'Franklin Gothic Demi', sans-serif;font-size:73.85px;fill:#808080;">KIV<tspan x="3334.289px 3373.774px " y="2193.699px 2193.699px ">eS</tspan>S</text></g><g transform="matrix(1,0,0,0.987951,0,14.838514)"><g transform="matrix(73.850298,0,0,73.850298,3852.490685,2193.698809)"></g><text x="3620.338px" y="2193.699px" style="font-family:'FranklinGothic-Demi', 'Franklin Gothic Demi', sans-serif;font-size:73.85px;fill:#808080;">KIV<tspan x="3727.255px 3766.741px " y="2193.699px 2193.699px ">eS</tspan>S</text></g><g transform="matrix(1,0,0,0.987951,0,14.838514)"><g transform="matrix(73.850298,0,0,73.850298,4245.456878,2193.698809)"></g><text x="4013.304px" y="2193.699px" style="font-family:'FranklinGothic-Demi', 'Franklin Gothic Demi', sans-serif;font-size:73.85px;fill:#808080;">KIV<tspan x="4120.221px 4159.707px " y="2193.699px 2193.699px ">eS</tspan>S</text></g><g transform="matrix(1,0,0,0.987951,0,14.838514)"><g transform="matrix(73.850298,0,0,73.850298,4638.423071,2193.698809)"></g><text x="4406.271px" y="2193.699px" style="font-family:'FranklinGothic-Demi', 'Franklin Gothic Demi', sans-serif;font-size:73.85px;fill:#808080;">KIV<tspan x="4513.188px 4552.673px " y="2193.699px 2193.699px ">eS</tspan>S</text></g><g transform="matrix(1,0,0,0.987951,0,17.3016)"><g transform="matrix(73.850298,0,0,73.850298,315.794946,2398.113328)"></g><text x="83.642px" y="2398.113px" style="font-family:'FranklinGothic-Demi', 'Franklin Gothic Demi', sans-serif;font-size:73.85px;fill:#808080;">KIV<tspan x="190.56px 230.045px " y="2398.113px 2398.113px ">eS</tspan>S</text></g><g transform="matrix(1,0,0,0.987951,-0,17.3016)"><g transform="matrix(73.850298,0,0,73.850298,708.761139,2398.113328)"></g><text x="476.609px" y="2398.113px" style="font-family:'FranklinGothic-Demi', 'Franklin Gothic Demi', sans-serif;font-size:73.85px;fill:#808080;">KIV<tspan x="583.526px 623.011px " y="2398.113px 2398.113px ">eS</tspan>S</text></g><g transform="matrix(1,0,0,0.987951,0,17.3016)"><g transform="matrix(73.850298,0,0,73.850298,1101.727332,2398.113328)"></g><text x="869.575px" y="2398.113px" style="font-family:'FranklinGothic-Demi', 'Franklin Gothic Demi', sans-serif;font-size:73.85px;fill:#808080;">KIV<tspan x="976.492px 1015.977px " y="2398.113px 2398.113px ">eS</tspan>S</text></g><g transform="matrix(1,0,0,0.987951,0,17.3016)"><g transform="matrix(73.850298,0,0,73.850298,1494.693526,2398.113328)"></g><text x="1262.541px" y="2398.113px" style="font-family:'FranklinGothic-Demi', 'Franklin Gothic Demi', sans-serif;font-size:73.85px;fill:#808080;">KIV<tspan x="1369.458px 1408.944px " y="2398.113px 2398.113px ">eS</tspan>S</text></g><g transform="matrix(1,0,0,0.987951,0,17.3016)"><g transform="matrix(73.850298,0,0,73.850298,1887.659719,2398.113328)"></g><text x="1655.507px" y="2398.113px" style="font-family:'FranklinGothic-Demi', 'Franklin Gothic Demi', sans-serif;font-size:73.85px;fill:#808080;">KIV<tspan x="1762.424px 1801.91px " y="2398.113px 2398.113px ">eS</tspan>S</text></g><g transform="matrix(1,0,0,0.987951,0,17.3016)"><g transform="matrix(73.850298,0,0,73.850298,2280.625912,2398.113328)"></g><text x="2048.473px" y="2398.113px" style="font-family:'FranklinGothic-Demi', 'Franklin Gothic Demi', sans-serif;font-size:73.85px;fill:#808080;">KIV<tspan x="2155.391px 2194.876px " y="2398.113px 2398.113px ">eS</tspan>S</text></g><g transform="matrix(1,0,0,0.987951,0,17.3016)"><g transform="matrix(73.850298,0,0,73.850298,2673.592105,2398.113328)"></g><text x="2441.44px" y="2398.113px" style="font-family:'FranklinGothic-Demi', 'Franklin Gothic Demi', sans-serif;font-size:73.85px;fill:#808080;">KIV<tspan x="2548.357px 2587.842px " y="2398.113px 2398.113px ">eS</tspan>S</text></g><g transform="matrix(1,0,0,0.987951,0,17.3016)"><g transform="matrix(73.850298,0,0,73.850298,3066.558298,2398.113328)"></g><text x="2834.406px" y="2398.113px" style="font-family:'FranklinGothic-Demi', 'Franklin Gothic Demi', sans-serif;font-size:73.85px;fill:#808080;">KIV<tspan x="2941.323px 2980.808px " y="2398.113px 2398.113px ">eS</tspan>S</text></g><g transform="matrix(1,0,0,0.987951,0,17.3016)"><g transform="matrix(73.850298,0,0,73.850298,3459.524492,2398.113328)"></g><text x="3227.372px" y="2398.113px" style="font-family:'FranklinGothic-Demi', 'Franklin Gothic Demi', sans-serif;font-size:73.85px;fill:#808080;">KIV<tspan x="3334.289px 3373.774px " y="2398.113px 2398.113px ">eS</tspan>S</text></g><g transform="matrix(1,0,0,0.987951,0,17.3016)"><g transform="matrix(73.850298,0,0,73.850298,3852.490685,2398.113328)"></g><text x="3620.338px" y="2398.113px" style="font-family:'FranklinGothic-Demi', 'Franklin Gothic Demi', sans-serif;font-size:73.85px;fill:#808080;">KIV<tspan x="3727.255px 3766.741px " y="2398.113px 2398.113px ">eS</tspan>S</text></g><g transform="matrix(1,0,0,0.987951,0,17.3016)"><g transform="matrix(73.850298,0,0,73.850298,4245.456878,2398.113328)"></g><text x="4013.304px" y="2398.113px" style="font-family:'FranklinGothic-Demi', 'Franklin Gothic Demi', sans-serif;font-size:73.85px;fill:#808080;">KIV<tspan x="4120.221px 4159.707px " y="2398.113px 2398.113px ">eS</tspan>S</text></g><g transform="matrix(1,0,0,0.987951,0,17.3016)"><g transform="matrix(73.850298,0,0,73.850298,4638.423071,2398.113328)"></g><text x="4406.271px" y="2398.113px" style="font-family:'FranklinGothic-Demi', 'Franklin Gothic Demi', sans-serif;font-size:73.85px;fill:#808080;">KIV<tspan x="4513.188px 4552.673px " y="2398.113px 2398.113px ">eS</tspan>S</text></g><g transform="matrix(1,0,0,0.987951,-0,19.764687)"><g transform="matrix(73.850298,0,0,73.850298,315.794946,2602.527847)"></g><text x="83.642px" y="2602.528px" style="font-family:'FranklinGothic-Demi', 'Franklin Gothic Demi', sans-serif;font-size:73.85px;fill:#808080;">KIV<tspan x="190.56px 230.045px " y="2602.528px 2602.528px ">eS</tspan>S</text></g><g transform="matrix(1,0,0,0.987951,-0,19.764687)"><g transform="matrix(73.850298,0,0,73.850298,708.761139,2602.527847)"></g><text x="476.609px" y="2602.528px" style="font-family:'FranklinGothic-Demi', 'Franklin Gothic Demi', sans-serif;font-size:73.85px;fill:#808080;">KIV<tspan x="583.526px 623.011px " y="2602.528px 2602.528px ">eS</tspan>S</text></g><g transform="matrix(1,0,0,0.987951,0,19.764687)"><g transform="matrix(73.850298,0,0,73.850298,1101.727332,2602.527847)"></g><text x="869.575px" y="2602.528px" style="font-family:'FranklinGothic-Demi', 'Franklin Gothic Demi', sans-serif;font-size:73.85px;fill:#808080;">KIV<tspan x="976.492px 1015.977px " y="2602.528px 2602.528px ">eS</tspan>S</text></g><g transform="matrix(1,0,0,0.987951,0,19.764687)"><g transform="matrix(73.850298,0,0,73.850298,1494.693526,2602.527847)"></g><text x="1262.541px" y="2602.528px" style="font-family:'FranklinGothic-Demi', 'Franklin Gothic Demi', sans-serif;font-size:73.85px;fill:#808080;">KIV<tspan x="1369.458px 1408.944px " y="2602.528px 2602.528px ">eS</tspan>S</text></g><g transform="matrix(1,0,0,0.987951,0,19.764687)"><g transform="matrix(73.850298,0,0,73.850298,1887.659719,2602.527847)"></g><text x="1655.507px" y="2602.528px" style="font-family:'FranklinGothic-Demi', 'Franklin Gothic Demi', sans-serif;font-size:73.85px;fill:#808080;">KIV<tspan x="1762.424px 1801.91px " y="2602.528px 2602.528px ">eS</tspan>S</text></g><g transform="matrix(1,0,0,0.987951,0,19.764687)"><g transform="matrix(73.850298,0,0,73.850298,2280.625912,2602.527847)"></g><text x="2048.473px" y="2602.528px" style="font-family:'FranklinGothic-Demi', 'Franklin Gothic Demi', sans-serif;font-size:73.85px;fill:#808080;">KIV<tspan x="2155.391px 2194.876px " y="2602.528px 2602.528px ">eS</tspan>S</text></g><g transform="matrix(1,0,0,0.987951,0,19.764687)"><g transform="matrix(73.850298,0,0,73.850298,2673.592105,2602.527847)"></g><text x="2441.44px" y="2602.528px" style="font-family:'FranklinGothic-Demi', 'Franklin Gothic Demi', sans-serif;font-size:73.85px;fill:#808080;">KIV<tspan x="2548.357px 2587.842px " y="2602.528px 2602.528px ">eS</tspan>S</text></g><g transform="matrix(1,0,0,0.987951,0,19.764687)"><g transform="matrix(73.850298,0,0,73.850298,3066.558298,2602.527847)"></g><text x="2834.406px" y="2602.528px" style="font-family:'FranklinGothic-Demi', 'Franklin Gothic Demi', sans-serif;font-size:73.85px;fill:#808080;">KIV<tspan x="2941.323px 2980.808px " y="2602.528px 2602.528px ">eS</tspan>S</text></g><g transform="matrix(1,0,0,0.987951,0,19.764687)"><g transform="matrix(73.850298,0,0,73.850298,3459.524492,2602.527847)"></g><text x="3227.372px" y="2602.528px" style="font-family:'FranklinGothic-Demi', 'Franklin Gothic Demi', sans-serif;font-size:73.85px;fill:#808080;">KIV<tspan x="3334.289px 3373.774px " y="2602.528px 2602.528px ">eS</tspan>S</text></g><g transform="matrix(1,0,0,0.987951,0,19.764687)"><g transform="matrix(73.850298,0,0,73.850298,3852.490685,2602.527847)"></g><text x="3620.338px" y="2602.528px" style="font-family:'FranklinGothic-Demi', 'Franklin Gothic Demi', sans-serif;font-size:73.85px;fill:#808080;">KIV<tspan x="3727.255px 3766.741px " y="2602.528px 2602.528px ">eS</tspan>S</text></g><g transform="matrix(1,0,0,0.987951,0,19.764687)"><g transform="matrix(73.850298,0,0,73.850298,4245.456878,2602.527847)"></g><text x="4013.304px" y="2602.528px" style="font-family:'FranklinGothic-Demi', 'Franklin Gothic Demi', sans-serif;font-size:73.85px;fill:#808080;">KIV<tspan x="4120.221px 4159.707px " y="2602.528px 2602.528px ">eS</tspan>S</text></g><g transform="matrix(1,0,0,0.987951,0,19.764687)"><g transform="matrix(73.850298,0,0,73.850298,4638.423071,2602.527847)"></g><text x="4406.271px" y="2602.528px" style="font-family:'FranklinGothic-Demi', 'Franklin Gothic Demi', sans-serif;font-size:73.85px;fill:#808080;">KIV<tspan x="4513.188px 4552.673px " y="2602.528px 2602.528px ">eS</tspan>S</text></g><g transform="matrix(1,0,0,0.987951,0,22.227773)"><g transform="matrix(73.850298,0,0,73.850298,315.794946,2806.942366)"></g><text x="83.642px" y="2806.942px" style="font-family:'FranklinGothic-Demi', 'Franklin Gothic Demi', sans-serif;font-size:73.85px;fill:#808080;">KIV<tspan x="190.56px 230.045px " y="2806.942px 2806.942px ">eS</tspan>S</text></g><g transform="matrix(1,0,0,0.987951,0,22.227773)"><g transform="matrix(73.850298,0,0,73.850298,708.761139,2806.942366)"></g><text x="476.609px" y="2806.942px" style="font-family:'FranklinGothic-Demi', 'Franklin Gothic Demi', sans-serif;font-size:73.85px;fill:#808080;">KIV<tspan x="583.526px 623.011px " y="2806.942px 2806.942px ">eS</tspan>S</text></g><g transform="matrix(1,0,0,0.987951,0,22.227773)"><g transform="matrix(73.850298,0,0,73.850298,1101.727332,2806.942366)"></g><text x="869.575px" y="2806.942px" style="font-family:'FranklinGothic-Demi', 'Franklin Gothic Demi', sans-serif;font-size:73.85px;fill:#808080;">KIV<tspan x="976.492px 1015.977px " y="2806.942px 2806.942px ">eS</tspan>S</text></g><g transform="matrix(1,0,0,0.987951,0,22.227773)"><g transform="matrix(73.850298,0,0,73.850298,1494.693526,2806.942366)"></g><text x="1262.541px" y="2806.942px" style="font-family:'FranklinGothic-Demi', 'Franklin Gothic Demi', sans-serif;font-size:73.85px;fill:#808080;">KIV<tspan x="1369.458px 1408.944px " y="2806.942px 2806.942px ">eS</tspan>S</text></g><g transform="matrix(1,0,0,0.987951,0,22.227773)"><g transform="matrix(73.850298,0,0,73.850298,1887.659719,2806.942366)"></g><text x="1655.507px" y="2806.942px" style="font-family:'FranklinGothic-Demi', 'Franklin Gothic Demi', sans-serif;font-size:73.85px;fill:#808080;">KIV<tspan x="1762.424px 1801.91px " y="2806.942px 2806.942px ">eS</tspan>S</text></g><g transform="matrix(1,0,0,0.987951,0,22.227773)"><g transform="matrix(73.850298,0,0,73.850298,2280.625912,2806.942366)"></g><text x="2048.473px" y="2806.942px" style="font-family:'FranklinGothic-Demi', 'Franklin Gothic Demi', sans-serif;font-size:73.85px;fill:#808080;">KIV<tspan x="2155.391px 2194.876px " y="2806.942px 2806.942px ">eS</tspan>S</text></g><g transform="matrix(1,0,0,0.987951,0,22.227773)"><g transform="matrix(73.850298,0,0,73.850298,2673.592105,2806.942366)"></g><text x="2441.44px" y="2806.942px" style="font-family:'FranklinGothic-Demi', 'Franklin Gothic Demi', sans-serif;font-size:73.85px;fill:#808080;">KIV<tspan x="2548.357px 2587.842px " y="2806.942px 2806.942px ">eS</tspan>S</text></g><g transform="matrix(1,0,0,0.987951,0,22.227773)"><g transform="matrix(73.850298,0,0,73.850298,3066.558298,2806.942366)"></g><text x="2834.406px" y="2806.942px" style="font-family:'FranklinGothic-Demi', 'Franklin Gothic Demi', sans-serif;font-size:73.85px;fill:#808080;">KIV<tspan x="2941.323px 2980.808px " y="2806.942px 2806.942px ">eS</tspan>S</text></g><g transform="matrix(1,0,0,0.987951,0,22.227773)"><g transform="matrix(73.850298,0,0,73.850298,3459.524492,2806.942366)"></g><text x="3227.372px" y="2806.942px" style="font-family:'FranklinGothic-Demi', 'Franklin Gothic Demi', sans-serif;font-size:73.85px;fill:#808080;">KIV<tspan x="3334.289px 3373.774px " y="2806.942px 2806.942px ">eS</tspan>S</text></g><g transform="matrix(1,0,0,0.987951,0,22.227773)"><g transform="matrix(73.850298,0,0,73.850298,3852.490685,2806.942366)"></g><text x="3620.338px" y="2806.942px" style="font-family:'FranklinGothic-Demi', 'Franklin Gothic Demi', sans-serif;font-size:73.85px;fill:#808080;">KIV<tspan x="3727.255px 3766.741px " y="2806.942px 2806.942px ">eS</tspan>S</text></g><g transform="matrix(1,0,0,0.987951,0,22.227773)"><g transform="matrix(73.850298,0,0,73.850298,4245.456878,2806.942366)"></g><text x="4013.304px" y="2806.942px" style="font-family:'FranklinGothic-Demi', 'Franklin Gothic Demi', sans-serif;font-size:73.85px;fill:#808080;">KIV<tspan x="4120.221px 4159.707px " y="2806.942px 2806.942px ">eS</tspan>S</text></g><g transform="matrix(1,0,0,0.987951,0,22.227773)"><g transform="matrix(73.850298,0,0,73.850298,4638.423071,2806.942366)"></g><text x="4406.271px" y="2806.942px" style="font-family:'FranklinGothic-Demi', 'Franklin Gothic Demi', sans-serif;font-size:73.85px;fill:#808080;">KIV<tspan x="4513.188px 4552.673px " y="2806.942px 2806.942px ">eS</tspan>S</text></g><g transform="matrix(1,0,0,0.987951,-0,24.69086)"><g transform="matrix(73.850298,0,0,73.850298,315.794946,3011.356885)"></g><text x="83.642px" y="3011.357px" style="font-family:'FranklinGothic-Demi', 'Franklin Gothic Demi', sans-serif;font-size:73.85px;fill:#808080;">KIV<tspan x="190.56px 230.045px " y="3011.357px 3011.357px ">eS</tspan>S</text></g><g transform="matrix(1,0,0,0.987951,-0,24.69086)"><g transform="matrix(73.850298,0,0,73.850298,708.761139,3011.356885)"></g><text x="476.609px" y="3011.357px" style="font-family:'FranklinGothic-Demi', 'Franklin Gothic Demi', sans-serif;font-size:73.85px;fill:#808080;">KIV<tspan x="583.526px 623.011px " y="3011.357px 3011.357px ">eS</tspan>S</text></g><g transform="matrix(1,0,0,0.987951,0,24.69086)"><g transform="matrix(73.850298,0,0,73.850298,1101.727332,3011.356885)"></g><text x="869.575px" y="3011.357px" style="font-family:'FranklinGothic-Demi', 'Franklin Gothic Demi', sans-serif;font-size:73.85px;fill:#808080;">KIV<tspan x="976.492px 1015.977px " y="3011.357px 3011.357px ">eS</tspan>S</text></g><g transform="matrix(1,0,0,0.987951,0,24.69086)"><g transform="matrix(73.850298,0,0,73.850298,1494.693526,3011.356885)"></g><text x="1262.541px" y="3011.357px" style="font-family:'FranklinGothic-Demi', 'Franklin Gothic Demi', sans-serif;font-size:73.85px;fill:#808080;">KIV<tspan x="1369.458px 1408.944px " y="3011.357px 3011.357px ">eS</tspan>S</text></g><g transform="matrix(1,0,0,0.987951,0,24.69086)"><g transform="matrix(73.850298,0,0,73.850298,1887.659719,3011.356885)"></g><text x="1655.507px" y="3011.357px" style="font-family:'FranklinGothic-Demi', 'Franklin Gothic Demi', sans-serif;font-size:73.85px;fill:#808080;">KIV<tspan x="1762.424px 1801.91px " y="3011.357px 3011.357px ">eS</tspan>S</text></g><g transform="matrix(1,0,0,0.987951,0,24.69086)"><g transform="matrix(73.850298,0,0,73.850298,2280.625912,3011.356885)"></g><text x="2048.473px" y="3011.357px" style="font-family:'FranklinGothic-Demi', 'Franklin Gothic Demi', sans-serif;font-size:73.85px;fill:#808080;">KIV<tspan x="2155.391px 2194.876px " y="3011.357px 3011.357px ">eS</tspan>S</text></g><g transform="matrix(1,0,0,0.987951,0,24.69086)"><g transform="matrix(73.850298,0,0,73.850298,2673.592105,3011.356885)"></g><text x="2441.44px" y="3011.357px" style="font-family:'FranklinGothic-Demi', 'Franklin Gothic Demi', sans-serif;font-size:73.85px;fill:#808080;">KIV<tspan x="2548.357px 2587.842px " y="3011.357px 3011.357px ">eS</tspan>S</text></g><g transform="matrix(1,0,0,0.987951,0,24.69086)"><g transform="matrix(73.850298,0,0,73.850298,3066.558298,3011.356885)"></g><text x="2834.406px" y="3011.357px" style="font-family:'FranklinGothic-Demi', 'Franklin Gothic Demi', sans-serif;font-size:73.85px;fill:#808080;">KIV<tspan x="2941.323px 2980.808px " y="3011.357px 3011.357px ">eS</tspan>S</text></g><g transform="matrix(1,0,0,0.987951,0,24.69086)"><g transform="matrix(73.850298,0,0,73.850298,3459.524492,3011.356885)"></g><text x="3227.372px" y="3011.357px" style="font-family:'FranklinGothic-Demi', 'Franklin Gothic Demi', sans-serif;font-size:73.85px;fill:#808080;">KIV<tspan x="3334.289px 3373.774px " y="3011.357px 3011.357px ">eS</tspan>S</text></g><g transform="matrix(1,0,0,0.987951,0,24.69086)"><g transform="matrix(73.850298,0,0,73.850298,3852.490685,3011.356885)"></g><text x="3620.338px" y="3011.357px" style="font-family:'FranklinGothic-Demi', 'Franklin Gothic Demi', sans-serif;font-size:73.85px;fill:#808080;">KIV<tspan x="3727.255px 3766.741px " y="3011.357px 3011.357px ">eS</tspan>S</text></g><g transform="matrix(1,0,0,0.987951,0,24.69086)"><g transform="matrix(73.850298,0,0,73.850298,4245.456878,3011.356885)"></g><text x="4013.304px" y="3011.357px" style="font-family:'FranklinGothic-Demi', 'Franklin Gothic Demi', sans-serif;font-size:73.85px;fill:#808080;">KIV<tspan x="4120.221px 4159.707px " y="3011.357px 3011.357px ">eS</tspan>S</text></g><g transform="matrix(1,0,0,0.987951,0,24.69086)"><g transform="matrix(73.850298,0,0,73.850298,4638.423071,3011.356885)"></g><text x="4406.271px" y="3011.357px" style="font-family:'FranklinGothic-Demi', 'Franklin Gothic Demi', sans-serif;font-size:73.85px;fill:#808080;">KIV<tspan x="4513.188px 4552.673px " y="3011.357px 3011.357px ">eS</tspan>S</text></g><g transform="matrix(1,0,0,0.987951,0,27.153946)"><g transform="matrix(73.850298,0,0,73.850298,315.794946,3215.771404)"></g><text x="83.642px" y="3215.771px" style="font-family:'FranklinGothic-Demi', 'Franklin Gothic Demi', sans-serif;font-size:73.85px;fill:#808080;">KIV<tspan x="190.56px 230.045px " y="3215.771px 3215.771px ">eS</tspan>S</text></g><g transform="matrix(1,0,0,0.987951,0,27.153946)"><g transform="matrix(73.850298,0,0,73.850298,708.761139,3215.771404)"></g><text x="476.609px" y="3215.771px" style="font-family:'FranklinGothic-Demi', 'Franklin Gothic Demi', sans-serif;font-size:73.85px;fill:#808080;">KIV<tspan x="583.526px 623.011px " y="3215.771px 3215.771px ">eS</tspan>S</text></g><g transform="matrix(1,0,0,0.987951,0,27.153946)"><g transform="matrix(73.850298,0,0,73.850298,1101.727332,3215.771404)"></g><text x="869.575px" y="3215.771px" style="font-family:'FranklinGothic-Demi', 'Franklin Gothic Demi', sans-serif;font-size:73.85px;fill:#808080;">KIV<tspan x="976.492px 1015.977px " y="3215.771px 3215.771px ">eS</tspan>S</text></g><g transform="matrix(1,0,0,0.987951,0,27.153946)"><g transform="matrix(73.850298,0,0,73.850298,1494.693526,3215.771404)"></g><text x="1262.541px" y="3215.771px" style="font-family:'FranklinGothic-Demi', 'Franklin Gothic Demi', sans-serif;font-size:73.85px;fill:#808080;">KIV<tspan x="1369.458px 1408.944px " y="3215.771px 3215.771px ">eS</tspan>S</text></g><g transform="matrix(1,0,0,0.987951,0,27.153946)"><g transform="matrix(73.850298,0,0,73.850298,1887.659719,3215.771404)"></g><text x="1655.507px" y="3215.771px" style="font-family:'FranklinGothic-Demi', 'Franklin Gothic Demi', sans-serif;font-size:73.85px;fill:#808080;">KIV<tspan x="1762.424px 1801.91px " y="3215.771px 3215.771px ">eS</tspan>S</text></g><g transform="matrix(1,0,0,0.987951,0,27.153946)"><g transform="matrix(73.850298,0,0,73.850298,2280.625912,3215.771404)"></g><text x="2048.473px" y="3215.771px" style="font-family:'FranklinGothic-Demi', 'Franklin Gothic Demi', sans-serif;font-size:73.85px;fill:#808080;">KIV<tspan x="2155.391px 2194.876px " y="3215.771px 3215.771px ">eS</tspan>S</text></g><g transform="matrix(1,0,0,0.987951,0,27.153946)"><g transform="matrix(73.850298,0,0,73.850298,2673.592105,3215.771404)"></g><text x="2441.44px" y="3215.771px" style="font-family:'FranklinGothic-Demi', 'Franklin Gothic Demi', sans-serif;font-size:73.85px;fill:#808080;">KIV<tspan x="2548.357px 2587.842px " y="3215.771px 3215.771px ">eS</tspan>S</text></g><g transform="matrix(1,0,0,0.987951,0,27.153946)"><g transform="matrix(73.850298,0,0,73.850298,3066.558298,3215.771404)"></g><text x="2834.406px" y="3215.771px" style="font-family:'FranklinGothic-Demi', 'Franklin Gothic Demi', sans-serif;font-size:73.85px;fill:#808080;">KIV<tspan x="2941.323px 2980.808px " y="3215.771px 3215.771px ">eS</tspan>S</text></g><g transform="matrix(1,0,0,0.987951,0,27.153946)"><g transform="matrix(73.850298,0,0,73.850298,3459.524492,3215.771404)"></g><text x="3227.372px" y="3215.771px" style="font-family:'FranklinGothic-Demi', 'Franklin Gothic Demi', sans-serif;font-size:73.85px;fill:#808080;">KIV<tspan x="3334.289px 3373.774px " y="3215.771px 3215.771px ">eS</tspan>S</text></g><g transform="matrix(1,0,0,0.987951,0,27.153946)"><g transform="matrix(73.850298,0,0,73.850298,3852.490685,3215.771404)"></g><text x="3620.338px" y="3215.771px" style="font-family:'FranklinGothic-Demi', 'Franklin Gothic Demi', sans-serif;font-size:73.85px;fill:#808080;">KIV<tspan x="3727.255px 3766.741px " y="3215.771px 3215.771px ">eS</tspan>S</text></g><g transform="matrix(1,0,0,0.987951,0,27.153946)"><g transform="matrix(73.850298,0,0,73.850298,4245.456878,3215.771404)"></g><text x="4013.304px" y="3215.771px" style="font-family:'FranklinGothic-Demi', 'Franklin Gothic Demi', sans-serif;font-size:73.85px;fill:#808080;">KIV<tspan x="4120.221px 4159.707px " y="3215.771px 3215.771px ">eS</tspan>S</text></g><g transform="matrix(1,0,0,0.987951,0,27.153946)"><g transform="matrix(73.850298,0,0,73.850298,4638.423071,3215.771404)"></g><text x="4406.271px" y="3215.771px" style="font-family:'FranklinGothic-Demi', 'Franklin Gothic Demi', sans-serif;font-size:73.85px;fill:#808080;">KIV<tspan x="4513.188px 4552.673px " y="3215.771px 3215.771px ">eS</tspan>S</text></g><g transform="matrix(1,0,0,0.987951,-0,29.617033)"><g transform="matrix(73.850298,0,0,73.850298,315.794946,3420.185923)"></g><text x="83.642px" y="3420.186px" style="font-family:'FranklinGothic-Demi', 'Franklin Gothic Demi', sans-serif;font-size:73.85px;fill:#808080;">KIV<tspan x="190.56px 230.045px " y="3420.186px 3420.186px ">eS</tspan>S</text></g><g transform="matrix(1,0,0,0.987951,0,29.617033)"><g transform="matrix(73.850298,0,0,73.850298,708.761139,3420.185923)"></g><text x="476.609px" y="3420.186px" style="font-family:'FranklinGothic-Demi', 'Franklin Gothic Demi', sans-serif;font-size:73.85px;fill:#808080;">KIV<tspan x="583.526px 623.011px " y="3420.186px 3420.186px ">eS</tspan>S</text></g><g transform="matrix(1,0,0,0.987951,0,29.617033)"><g transform="matrix(73.850298,0,0,73.850298,1101.727332,3420.185923)"></g><text x="869.575px" y="3420.186px" style="font-family:'FranklinGothic-Demi', 'Franklin Gothic Demi', sans-serif;font-size:73.85px;fill:#808080;">KIV<tspan x="976.492px 1015.977px " y="3420.186px 3420.186px ">eS</tspan>S</text></g><g transform="matrix(1,0,0,0.987951,0,29.617033)"><g transform="matrix(73.850298,0,0,73.850298,1494.693526,3420.185923)"></g><text x="1262.541px" y="3420.186px" style="font-family:'FranklinGothic-Demi', 'Franklin Gothic Demi', sans-serif;font-size:73.85px;fill:#808080;">KIV<tspan x="1369.458px 1408.944px " y="3420.186px 3420.186px ">eS</tspan>S</text></g><g transform="matrix(1,0,0,0.987951,0,29.617033)"><g transform="matrix(73.850298,0,0,73.850298,1887.659719,3420.185923)"></g><text x="1655.507px" y="3420.186px" style="font-family:'FranklinGothic-Demi', 'Franklin Gothic Demi', sans-serif;font-size:73.85px;fill:#808080;">KIV<tspan x="1762.424px 1801.91px " y="3420.186px 3420.186px ">eS</tspan>S</text></g><g transform="matrix(1,0,0,0.987951,0,29.617033)"><g transform="matrix(73.850298,0,0,73.850298,2280.625912,3420.185923)"></g><text x="2048.473px" y="3420.186px" style="font-family:'FranklinGothic-Demi', 'Franklin Gothic Demi', sans-serif;font-size:73.85px;fill:#808080;">KIV<tspan x="2155.391px 2194.876px " y="3420.186px 3420.186px ">eS</tspan>S</text></g><g transform="matrix(1,0,0,0.987951,0,29.617033)"><g transform="matrix(73.850298,0,0,73.850298,2673.592105,3420.185923)"></g><text x="2441.44px" y="3420.186px" style="font-family:'FranklinGothic-Demi', 'Franklin Gothic Demi', sans-serif;font-size:73.85px;fill:#808080;">KIV<tspan x="2548.357px 2587.842px " y="3420.186px 3420.186px ">eS</tspan>S</text></g><g transform="matrix(1,0,0,0.987951,0,29.617033)"><g transform="matrix(73.850298,0,0,73.850298,3066.558298,3420.185923)"></g><text x="2834.406px" y="3420.186px" style="font-family:'FranklinGothic-Demi', 'Franklin Gothic Demi', sans-serif;font-size:73.85px;fill:#808080;">KIV<tspan x="2941.323px 2980.808px " y="3420.186px 3420.186px ">eS</tspan>S</text></g><g transform="matrix(1,0,0,0.987951,0,29.617033)"><g transform="matrix(73.850298,0,0,73.850298,3459.524492,3420.185923)"></g><text x="3227.372px" y="3420.186px" style="font-family:'FranklinGothic-Demi', 'Franklin Gothic Demi', sans-serif;font-size:73.85px;fill:#808080;">KIV<tspan x="3334.289px 3373.774px " y="3420.186px 3420.186px ">eS</tspan>S</text></g><g transform="matrix(1,0,0,0.987951,0,29.617033)"><g transform="matrix(73.850298,0,0,73.850298,3852.490685,3420.185923)"></g><text x="3620.338px" y="3420.186px" style="font-family:'FranklinGothic-Demi', 'Franklin Gothic Demi', sans-serif;font-size:73.85px;fill:#808080;">KIV<tspan x="3727.255px 3766.741px " y="3420.186px 3420.186px ">eS</tspan>S</text></g><g transform="matrix(1,0,0,0.987951,0,29.617033)"><g transform="matrix(73.850298,0,0,73.850298,4245.456878,3420.185923)"></g><text x="4013.304px" y="3420.186px" style="font-family:'FranklinGothic-Demi', 'Franklin Gothic Demi', sans-serif;font-size:73.85px;fill:#808080;">KIV<tspan x="4120.221px 4159.707px " y="3420.186px 3420.186px ">eS</tspan>S</text></g><g transform="matrix(1,0,0,0.987951,0,29.617033)"><g transform="matrix(73.850298,0,0,73.850298,4638.423071,3420.185923)"></g><text x="4406.271px" y="3420.186px" style="font-family:'FranklinGothic-Demi', 'Franklin Gothic Demi', sans-serif;font-size:73.85px;fill:#808080;">KIV<tspan x="4513.188px 4552.673px " y="3420.186px 3420.186px ">eS</tspan>S</text></g><g transform="matrix(1,0,0,0.987951,-0,32.08012)"><g transform="matrix(73.850298,0,0,73.850298,315.794946,3624.600442)"></g><text x="83.642px" y="3624.6px" style="font-family:'FranklinGothic-Demi', 'Franklin Gothic Demi', sans-serif;font-size:73.85px;fill:#808080;">KIV<tspan x="190.56px 230.045px " y="3624.6px 3624.6px ">eS</tspan>S</text></g><g transform="matrix(1,0,0,0.987951,0,32.08012)"><g transform="matrix(73.850298,0,0,73.850298,708.761139,3624.600442)"></g><text x="476.609px" y="3624.6px" style="font-family:'FranklinGothic-Demi', 'Franklin Gothic Demi', sans-serif;font-size:73.85px;fill:#808080;">KIV<tspan x="583.526px 623.011px " y="3624.6px 3624.6px ">eS</tspan>S</text></g><g transform="matrix(1,0,0,0.987951,0,32.08012)"><g transform="matrix(73.850298,0,0,73.850298,1101.727332,3624.600442)"></g><text x="869.575px" y="3624.6px" style="font-family:'FranklinGothic-Demi', 'Franklin Gothic Demi', sans-serif;font-size:73.85px;fill:#808080;">KIV<tspan x="976.492px 1015.977px " y="3624.6px 3624.6px ">eS</tspan>S</text></g><g transform="matrix(1,0,0,0.987951,0,32.08012)"><g transform="matrix(73.850298,0,0,73.850298,1494.693526,3624.600442)"></g><text x="1262.541px" y="3624.6px" style="font-family:'FranklinGothic-Demi', 'Franklin Gothic Demi', sans-serif;font-size:73.85px;fill:#808080;">KIV<tspan x="1369.458px 1408.944px " y="3624.6px 3624.6px ">eS</tspan>S</text></g><g transform="matrix(1,0,0,0.987951,0,32.08012)"><g transform="matrix(73.850298,0,0,73.850298,1887.659719,3624.600442)"></g><text x="1655.507px" y="3624.6px" style="font-family:'FranklinGothic-Demi', 'Franklin Gothic Demi', sans-serif;font-size:73.85px;fill:#808080;">KIV<tspan x="1762.424px 1801.91px " y="3624.6px 3624.6px ">eS</tspan>S</text></g><g transform="matrix(1,0,0,0.987951,0,32.08012)"><g transform="matrix(73.850298,0,0,73.850298,2280.625912,3624.600442)"></g><text x="2048.473px" y="3624.6px" style="font-family:'FranklinGothic-Demi', 'Franklin Gothic Demi', sans-serif;font-size:73.85px;fill:#808080;">KIV<tspan x="2155.391px 2194.876px " y="3624.6px 3624.6px ">eS</tspan>S</text></g><g transform="matrix(1,0,0,0.987951,0,32.08012)"><g transform="matrix(73.850298,0,0,73.850298,2673.592105,3624.600442)"></g><text x="2441.44px" y="3624.6px" style="font-family:'FranklinGothic-Demi', 'Franklin Gothic Demi', sans-serif;font-size:73.85px;fill:#808080;">KIV<tspan x="2548.357px 2587.842px " y="3624.6px 3624.6px ">eS</tspan>S</text></g><g transform="matrix(1,0,0,0.987951,0,32.08012)"><g transform="matrix(73.850298,0,0,73.850298,3066.558298,3624.600442)"></g><text x="2834.406px" y="3624.6px" style="font-family:'FranklinGothic-Demi', 'Franklin Gothic Demi', sans-serif;font-size:73.85px;fill:#808080;">KIV<tspan x="2941.323px 2980.808px " y="3624.6px 3624.6px ">eS</tspan>S</text></g><g transform="matrix(1,0,0,0.987951,0,32.08012)"><g transform="matrix(73.850298,0,0,73.850298,3459.524492,3624.600442)"></g><text x="3227.372px" y="3624.6px" style="font-family:'FranklinGothic-Demi', 'Franklin Gothic Demi', sans-serif;font-size:73.85px;fill:#808080;">KIV<tspan x="3334.289px 3373.774px " y="3624.6px 3624.6px ">eS</tspan>S</text></g><g transform="matrix(1,0,0,0.987951,0,32.08012)"><g transform="matrix(73.850298,0,0,73.850298,3852.490685,3624.600442)"></g><text x="3620.338px" y="3624.6px" style="font-family:'FranklinGothic-Demi', 'Franklin Gothic Demi', sans-serif;font-size:73.85px;fill:#808080;">KIV<tspan x="3727.255px 3766.741px " y="3624.6px 3624.6px ">eS</tspan>S</text></g><g transform="matrix(1,0,0,0.987951,0,32.08012)"><g transform="matrix(73.850298,0,0,73.850298,4245.456878,3624.600442)"></g><text x="4013.304px" y="3624.6px" style="font-family:'FranklinGothic-Demi', 'Franklin Gothic Demi', sans-serif;font-size:73.85px;fill:#808080;">KIV<tspan x="4120.221px 4159.707px " y="3624.6px 3624.6px ">eS</tspan>S</text></g><g transform="matrix(1,0,0,0.987951,0,32.08012)"><g transform="matrix(73.850298,0,0,73.850298,4638.423071,3624.600442)"></g><text x="4406.271px" y="3624.6px" style="font-family:'FranklinGothic-Demi', 'Franklin Gothic Demi', sans-serif;font-size:73.85px;fill:#808080;">KIV<tspan x="4513.188px 4552.673px " y="3624.6px 3624.6px ">eS</tspan>S</text></g><g transform="matrix(1,0,0,0.987951,0,34.543206)"><g transform="matrix(73.850298,0,0,73.850298,315.794946,3829.014961)"></g><text x="83.642px" y="3829.015px" style="font-family:'FranklinGothic-Demi', 'Franklin Gothic Demi', sans-serif;font-size:73.85px;fill:#808080;">KIV<tspan x="190.56px 230.045px " y="3829.015px 3829.015px ">eS</tspan>S</text></g><g transform="matrix(1,0,0,0.987951,0,34.543206)"><g transform="matrix(73.850298,0,0,73.850298,708.761139,3829.014961)"></g><text x="476.609px" y="3829.015px" style="font-family:'FranklinGothic-Demi', 'Franklin Gothic Demi', sans-serif;font-size:73.85px;fill:#808080;">KIV<tspan x="583.526px 623.011px " y="3829.015px 3829.015px ">eS</tspan>S</text></g><g transform="matrix(1,0,0,0.987951,0,34.543206)"><g transform="matrix(73.850298,0,0,73.850298,1101.727332,3829.014961)"></g><text x="869.575px" y="3829.015px" style="font-family:'FranklinGothic-Demi', 'Franklin Gothic Demi', sans-serif;font-size:73.85px;fill:#808080;">KIV<tspan x="976.492px 1015.977px " y="3829.015px 3829.015px ">eS</tspan>S</text></g><g transform="matrix(1,0,0,0.987951,0,34.543206)"><g transform="matrix(73.850298,0,0,73.850298,1494.693526,3829.014961)"></g><text x="1262.541px" y="3829.015px" style="font-family:'FranklinGothic-Demi', 'Franklin Gothic Demi', sans-serif;font-size:73.85px;fill:#808080;">KIV<tspan x="1369.458px 1408.944px " y="3829.015px 3829.015px ">eS</tspan>S</text></g><g transform="matrix(1,0,0,0.987951,0,34.543206)"><g transform="matrix(73.850298,0,0,73.850298,1887.659719,3829.014961)"></g><text x="1655.507px" y="3829.015px" style="font-family:'FranklinGothic-Demi', 'Franklin Gothic Demi', sans-serif;font-size:73.85px;fill:#808080;">KIV<tspan x="1762.424px 1801.91px " y="3829.015px 3829.015px ">eS</tspan>S</text></g><g transform="matrix(1,0,0,0.987951,0,34.543206)"><g transform="matrix(73.850298,0,0,73.850298,2280.625912,3829.014961)"></g><text x="2048.473px" y="3829.015px" style="font-family:'FranklinGothic-Demi', 'Franklin Gothic Demi', sans-serif;font-size:73.85px;fill:#808080;">KIV<tspan x="2155.391px 2194.876px " y="3829.015px 3829.015px ">eS</tspan>S</text></g><g transform="matrix(1,0,0,0.987951,0,34.543206)"><g transform="matrix(73.850298,0,0,73.850298,2673.592105,3829.014961)"></g><text x="2441.44px" y="3829.015px" style="font-family:'FranklinGothic-Demi', 'Franklin Gothic Demi', sans-serif;font-size:73.85px;fill:#808080;">KIV<tspan x="2548.357px 2587.842px " y="3829.015px 3829.015px ">eS</tspan>S</text></g><g transform="matrix(1,0,0,0.987951,0,34.543206)"><g transform="matrix(73.850298,0,0,73.850298,3066.558298,3829.014961)"></g><text x="2834.406px" y="3829.015px" style="font-family:'FranklinGothic-Demi', 'Franklin Gothic Demi', sans-serif;font-size:73.85px;fill:#808080;">KIV<tspan x="2941.323px 2980.808px " y="3829.015px 3829.015px ">eS</tspan>S</text></g><g transform="matrix(1,0,0,0.987951,0,34.543206)"><g transform="matrix(73.850298,0,0,73.850298,3459.524492,3829.014961)"></g><text x="3227.372px" y="3829.015px" style="font-family:'FranklinGothic-Demi', 'Franklin Gothic Demi', sans-serif;font-size:73.85px;fill:#808080;">KIV<tspan x="3334.289px 3373.774px " y="3829.015px 3829.015px ">eS</tspan>S</text></g><g transform="matrix(1,0,0,0.987951,0,34.543206)"><g transform="matrix(73.850298,0,0,73.850298,3852.490685,3829.014961)"></g><text x="3620.338px" y="3829.015px" style="font-family:'FranklinGothic-Demi', 'Franklin Gothic Demi', sans-serif;font-size:73.85px;fill:#808080;">KIV<tspan x="3727.255px 3766.741px " y="3829.015px 3829.015px ">eS</tspan>S</text></g><g transform="matrix(1,0,0,0.987951,0,34.543206)"><g transform="matrix(73.850298,0,0,73.850298,4245.456878,3829.014961)"></g><text x="4013.304px" y="3829.015px" style="font-family:'FranklinGothic-Demi', 'Franklin Gothic Demi', sans-serif;font-size:73.85px;fill:#808080;">KIV<tspan x="4120.221px 4159.707px " y="3829.015px 3829.015px ">eS</tspan>S</text></g><g transform="matrix(1,0,0,0.987951,0,34.543206)"><g transform="matrix(73.850298,0,0,73.850298,4638.423071,3829.014961)"></g><text x="4406.271px" y="3829.015px" style="font-family:'FranklinGothic-Demi', 'Franklin Gothic Demi', sans-serif;font-size:73.85px;fill:#808080;">KIV<tspan x="4513.188px 4552.673px " y="3829.015px 3829.015px ">eS</tspan>S</text></g><g transform="matrix(1,0,0,0.987951,0,37.006293)"><g transform="matrix(73.850298,0,0,73.850298,315.794946,4033.429479)"></g><text x="83.642px" y="4033.429px" style="font-family:'FranklinGothic-Demi', 'Franklin Gothic Demi', sans-serif;font-size:73.85px;fill:#808080;">KIV<tspan x="190.56px 230.045px " y="4033.429px 4033.429px ">eS</tspan>S</text></g><g transform="matrix(1,0,0,0.987951,0,37.006293)"><g transform="matrix(73.850298,0,0,73.850298,708.761139,4033.429479)"></g><text x="476.609px" y="4033.429px" style="font-family:'FranklinGothic-Demi', 'Franklin Gothic Demi', sans-serif;font-size:73.85px;fill:#808080;">KIV<tspan x="583.526px 623.011px " y="4033.429px 4033.429px ">eS</tspan>S</text></g><g transform="matrix(1,0,0,0.987951,0,37.006293)"><g transform="matrix(73.850298,0,0,73.850298,1101.727332,4033.429479)"></g><text x="869.575px" y="4033.429px" style="font-family:'FranklinGothic-Demi', 'Franklin Gothic Demi', sans-serif;font-size:73.85px;fill:#808080;">KIV<tspan x="976.492px 1015.977px " y="4033.429px 4033.429px ">eS</tspan>S</text></g><g transform="matrix(1,0,0,0.987951,0,37.006293)"><g transform="matrix(73.850298,0,0,73.850298,1494.693526,4033.429479)"></g><text x="1262.541px" y="4033.429px" style="font-family:'FranklinGothic-Demi', 'Franklin Gothic Demi', sans-serif;font-size:73.85px;fill:#808080;">KIV<tspan x="1369.458px 1408.944px " y="4033.429px 4033.429px ">eS</tspan>S</text></g><g transform="matrix(1,0,0,0.987951,0,37.006293)"><g transform="matrix(73.850298,0,0,73.850298,1887.659719,4033.429479)"></g><text x="1655.507px" y="4033.429px" style="font-family:'FranklinGothic-Demi', 'Franklin Gothic Demi', sans-serif;font-size:73.85px;fill:#808080;">KIV<tspan x="1762.424px 1801.91px " y="4033.429px 4033.429px ">eS</tspan>S</text></g><g transform="matrix(1,0,0,0.987951,0,37.006293)"><g transform="matrix(73.850298,0,0,73.850298,2280.625912,4033.429479)"></g><text x="2048.473px" y="4033.429px" style="font-family:'FranklinGothic-Demi', 'Franklin Gothic Demi', sans-serif;font-size:73.85px;fill:#808080;">KIV<tspan x="2155.391px 2194.876px " y="4033.429px 4033.429px ">eS</tspan>S</text></g><g transform="matrix(1,0,0,0.987951,0,37.006293)"><g transform="matrix(73.850298,0,0,73.850298,2673.592105,4033.429479)"></g><text x="2441.44px" y="4033.429px" style="font-family:'FranklinGothic-Demi', 'Franklin Gothic Demi', sans-serif;font-size:73.85px;fill:#808080;">KIV<tspan x="2548.357px 2587.842px " y="4033.429px 4033.429px ">eS</tspan>S</text></g><g transform="matrix(1,0,0,0.987951,0,37.006293)"><g transform="matrix(73.850298,0,0,73.850298,3066.558298,4033.429479)"></g><text x="2834.406px" y="4033.429px" style="font-family:'FranklinGothic-Demi', 'Franklin Gothic Demi', sans-serif;font-size:73.85px;fill:#808080;">KIV<tspan x="2941.323px 2980.808px " y="4033.429px 4033.429px ">eS</tspan>S</text></g><g transform="matrix(1,0,0,0.987951,0,37.006293)"><g transform="matrix(73.850298,0,0,73.850298,3459.524492,4033.429479)"></g><text x="3227.372px" y="4033.429px" style="font-family:'FranklinGothic-Demi', 'Franklin Gothic Demi', sans-serif;font-size:73.85px;fill:#808080;">KIV<tspan x="3334.289px 3373.774px " y="4033.429px 4033.429px ">eS</tspan>S</text></g><g transform="matrix(1,0,0,0.987951,0,37.006293)"><g transform="matrix(73.850298,0,0,73.850298,3852.490685,4033.429479)"></g><text x="3620.338px" y="4033.429px" style="font-family:'FranklinGothic-Demi', 'Franklin Gothic Demi', sans-serif;font-size:73.85px;fill:#808080;">KIV<tspan x="3727.255px 3766.741px " y="4033.429px 4033.429px ">eS</tspan>S</text></g><g transform="matrix(1,0,0,0.987951,0,37.006293)"><g transform="matrix(73.850298,0,0,73.850298,4245.456878,4033.429479)"></g><text x="4013.304px" y="4033.429px" style="font-family:'FranklinGothic-Demi', 'Franklin Gothic Demi', sans-serif;font-size:73.85px;fill:#808080;">KIV<tspan x="4120.221px 4159.707px " y="4033.429px 4033.429px ">eS</tspan>S</text></g><g transform="matrix(1,0,0,0.987951,0,37.006293)"><g transform="matrix(73.850298,0,0,73.850298,4638.423071,4033.429479)"></g><text x="4406.271px" y="4033.429px" style="font-family:'FranklinGothic-Demi', 'Franklin Gothic Demi', sans-serif;font-size:73.85px;fill:#808080;">KIV<tspan x="4513.188px 4552.673px " y="4033.429px 4033.429px ">eS</tspan>S</text></g><g transform="matrix(1,0,0,0.987951,0,39.469379)"><g transform="matrix(73.850298,0,0,73.850298,315.794946,4237.843998)"></g><text x="83.642px" y="4237.844px" style="font-family:'FranklinGothic-Demi', 'Franklin Gothic Demi', sans-serif;font-size:73.85px;fill:#808080;">KIV<tspan x="190.56px 230.045px " y="4237.844px 4237.844px ">eS</tspan>S</text></g><g transform="matrix(1,0,0,0.987951,-0,39.469379)"><g transform="matrix(73.850298,0,0,73.850298,708.761139,4237.843998)"></g><text x="476.609px" y="4237.844px" style="font-family:'FranklinGothic-Demi', 'Franklin Gothic Demi', sans-serif;font-size:73.85px;fill:#808080;">KIV<tspan x="583.526px 623.011px " y="4237.844px 4237.844px ">eS</tspan>S</text></g><g transform="matrix(1,0,0,0.987951,0,39.469379)"><g transform="matrix(73.850298,0,0,73.850298,1101.727332,4237.843998)"></g><text x="869.575px" y="4237.844px" style="font-family:'FranklinGothic-Demi', 'Franklin Gothic Demi', sans-serif;font-size:73.85px;fill:#808080;">KIV<tspan x="976.492px 1015.977px " y="4237.844px 4237.844px ">eS</tspan>S</text></g><g transform="matrix(1,0,0,0.987951,0,39.469379)"><g transform="matrix(73.850298,0,0,73.850298,1494.693526,4237.843998)"></g><text x="1262.541px" y="4237.844px" style="font-family:'FranklinGothic-Demi', 'Franklin Gothic Demi', sans-serif;font-size:73.85px;fill:#808080;">KIV<tspan x="1369.458px 1408.944px " y="4237.844px 4237.844px ">eS</tspan>S</text></g><g transform="matrix(1,0,0,0.987951,0,39.469379)"><g transform="matrix(73.850298,0,0,73.850298,1887.659719,4237.843998)"></g><text x="1655.507px" y="4237.844px" style="font-family:'FranklinGothic-Demi', 'Franklin Gothic Demi', sans-serif;font-size:73.85px;fill:#808080;">KIV<tspan x="1762.424px 1801.91px " y="4237.844px 4237.844px ">eS</tspan>S</text></g><g transform="matrix(1,0,0,0.987951,0,39.469379)"><g transform="matrix(73.850298,0,0,73.850298,2280.625912,4237.843998)"></g><text x="2048.473px" y="4237.844px" style="font-family:'FranklinGothic-Demi', 'Franklin Gothic Demi', sans-serif;font-size:73.85px;fill:#808080;">KIV<tspan x="2155.391px 2194.876px " y="4237.844px 4237.844px ">eS</tspan>S</text></g><g transform="matrix(1,0,0,0.987951,0,39.469379)"><g transform="matrix(73.850298,0,0,73.850298,2673.592105,4237.843998)"></g><text x="2441.44px" y="4237.844px" style="font-family:'FranklinGothic-Demi', 'Franklin Gothic Demi', sans-serif;font-size:73.85px;fill:#808080;">KIV<tspan x="2548.357px 2587.842px " y="4237.844px 4237.844px ">eS</tspan>S</text></g><g transform="matrix(1,0,0,0.987951,0,39.469379)"><g transform="matrix(73.850298,0,0,73.850298,3066.558298,4237.843998)"></g><text x="2834.406px" y="4237.844px" style="font-family:'FranklinGothic-Demi', 'Franklin Gothic Demi', sans-serif;font-size:73.85px;fill:#808080;">KIV<tspan x="2941.323px 2980.808px " y="4237.844px 4237.844px ">eS</tspan>S</text></g><g transform="matrix(1,0,0,0.987951,0,39.469379)"><g transform="matrix(73.850298,0,0,73.850298,3459.524492,4237.843998)"></g><text x="3227.372px" y="4237.844px" style="font-family:'FranklinGothic-Demi', 'Franklin Gothic Demi', sans-serif;font-size:73.85px;fill:#808080;">KIV<tspan x="3334.289px 3373.774px " y="4237.844px 4237.844px ">eS</tspan>S</text></g><g transform="matrix(1,0,0,0.987951,0,39.469379)"><g transform="matrix(73.850298,0,0,73.850298,3852.490685,4237.843998)"></g><text x="3620.338px" y="4237.844px" style="font-family:'FranklinGothic-Demi', 'Franklin Gothic Demi', sans-serif;font-size:73.85px;fill:#808080;">KIV<tspan x="3727.255px 3766.741px " y="4237.844px 4237.844px ">eS</tspan>S</text></g><g transform="matrix(1,0,0,0.987951,0,39.469379)"><g transform="matrix(73.850298,0,0,73.850298,4245.456878,4237.843998)"></g><text x="4013.304px" y="4237.844px" style="font-family:'FranklinGothic-Demi', 'Franklin Gothic Demi', sans-serif;font-size:73.85px;fill:#808080;">KIV<tspan x="4120.221px 4159.707px " y="4237.844px 4237.844px ">eS</tspan>S</text></g><g transform="matrix(1,0,0,0.987951,0,39.469379)"><g transform="matrix(73.850298,0,0,73.850298,4638.423071,4237.843998)"></g><text x="4406.271px" y="4237.844px" style="font-family:'FranklinGothic-Demi', 'Franklin Gothic Demi', sans-serif;font-size:73.85px;fill:#808080;">KIV<tspan x="4513.188px 4552.673px " y="4237.844px 4237.844px ">eS</tspan>S</text></g><g transform="matrix(1,0,0,0.987951,-0,41.932466)"><g transform="matrix(73.850298,0,0,73.850298,315.794946,4442.258517)"></g><text x="83.642px" y="4442.259px" style="font-family:'FranklinGothic-Demi', 'Franklin Gothic Demi', sans-serif;font-size:73.85px;fill:#808080;">KIV<tspan x="190.56px 230.045px " y="4442.259px 4442.259px ">eS</tspan>S</text></g><g transform="matrix(1,0,0,0.987951,0,41.932466)"><g transform="matrix(73.850298,0,0,73.850298,708.761139,4442.258517)"></g><text x="476.609px" y="4442.259px" style="font-family:'FranklinGothic-Demi', 'Franklin Gothic Demi', sans-serif;font-size:73.85px;fill:#808080;">KIV<tspan x="583.526px 623.011px " y="4442.259px 4442.259px ">eS</tspan>S</text></g><g transform="matrix(1,0,0,0.987951,0,41.932466)"><g transform="matrix(73.850298,0,0,73.850298,1101.727332,4442.258517)"></g><text x="869.575px" y="4442.259px" style="font-family:'FranklinGothic-Demi', 'Franklin Gothic Demi', sans-serif;font-size:73.85px;fill:#808080;">KIV<tspan x="976.492px 1015.977px " y="4442.259px 4442.259px ">eS</tspan>S</text></g><g transform="matrix(1,0,0,0.987951,0,41.932466)"><g transform="matrix(73.850298,0,0,73.850298,1494.693526,4442.258517)"></g><text x="1262.541px" y="4442.259px" style="font-family:'FranklinGothic-Demi', 'Franklin Gothic Demi', sans-serif;font-size:73.85px;fill:#808080;">KIV<tspan x="1369.458px 1408.944px " y="4442.259px 4442.259px ">eS</tspan>S</text></g><g transform="matrix(1,0,0,0.987951,0,41.932466)"><g transform="matrix(73.850298,0,0,73.850298,1887.659719,4442.258517)"></g><text x="1655.507px" y="4442.259px" style="font-family:'FranklinGothic-Demi', 'Franklin Gothic Demi', sans-serif;font-size:73.85px;fill:#808080;">KIV<tspan x="1762.424px 1801.91px " y="4442.259px 4442.259px ">eS</tspan>S</text></g><g transform="matrix(1,0,0,0.987951,0,41.932466)"><g transform="matrix(73.850298,0,0,73.850298,2280.625912,4442.258517)"></g><text x="2048.473px" y="4442.259px" style="font-family:'FranklinGothic-Demi', 'Franklin Gothic Demi', sans-serif;font-size:73.85px;fill:#808080;">KIV<tspan x="2155.391px 2194.876px " y="4442.259px 4442.259px ">eS</tspan>S</text></g><g transform="matrix(1,0,0,0.987951,0,41.932466)"><g transform="matrix(73.850298,0,0,73.850298,2673.592105,4442.258517)"></g><text x="2441.44px" y="4442.259px" style="font-family:'FranklinGothic-Demi', 'Franklin Gothic Demi', sans-serif;font-size:73.85px;fill:#808080;">KIV<tspan x="2548.357px 2587.842px " y="4442.259px 4442.259px ">eS</tspan>S</text></g><g transform="matrix(1,0,0,0.987951,0,41.932466)"><g transform="matrix(73.850298,0,0,73.850298,3066.558298,4442.258517)"></g><text x="2834.406px" y="4442.259px" style="font-family:'FranklinGothic-Demi', 'Franklin Gothic Demi', sans-serif;font-size:73.85px;fill:#808080;">KIV<tspan x="2941.323px 2980.808px " y="4442.259px 4442.259px ">eS</tspan>S</text></g><g transform="matrix(1,0,0,0.987951,0,41.932466)"><g transform="matrix(73.850298,0,0,73.850298,3459.524492,4442.258517)"></g><text x="3227.372px" y="4442.259px" style="font-family:'FranklinGothic-Demi', 'Franklin Gothic Demi', sans-serif;font-size:73.85px;fill:#808080;">KIV<tspan x="3334.289px 3373.774px " y="4442.259px 4442.259px ">eS</tspan>S</text></g><g transform="matrix(1,0,0,0.987951,0,41.932466)"><g transform="matrix(73.850298,0,0,73.850298,3852.490685,4442.258517)"></g><text x="3620.338px" y="4442.259px" style="font-family:'FranklinGothic-Demi', 'Franklin Gothic Demi', sans-serif;font-size:73.85px;fill:#808080;">KIV<tspan x="3727.255px 3766.741px " y="4442.259px 4442.259px ">eS</tspan>S</text></g><g transform="matrix(1,0,0,0.987951,0,41.932466)"><g transform="matrix(73.850298,0,0,73.850298,4245.456878,4442.258517)"></g><text x="4013.304px" y="4442.259px" style="font-family:'FranklinGothic-Demi', 'Franklin Gothic Demi', sans-serif;font-size:73.85px;fill:#808080;">KIV<tspan x="4120.221px 4159.707px " y="4442.259px 4442.259px ">eS</tspan>S</text></g><g transform="matrix(1,0,0,0.987951,0,41.932466)"><g transform="matrix(73.850298,0,0,73.850298,4638.423071,4442.258517)"></g><text x="4406.271px" y="4442.259px" style="font-family:'FranklinGothic-Demi', 'Franklin Gothic Demi', sans-serif;font-size:73.85px;fill:#808080;">KIV<tspan x="4513.188px 4552.673px " y="4442.259px 4442.259px ">eS</tspan>S</text></g><g transform="matrix(1,0,0,0.987951,0,44.395552)"><g transform="matrix(73.850298,0,0,73.850298,315.794946,4646.673036)"></g><text x="83.642px" y="4646.673px" style="font-family:'FranklinGothic-Demi', 'Franklin Gothic Demi', sans-serif;font-size:73.85px;fill:#808080;">KIV<tspan x="190.56px 230.045px " y="4646.673px 4646.673px ">eS</tspan>S</text></g><g transform="matrix(1,0,0,0.987951,-0,44.395552)"><g transform="matrix(73.850298,0,0,73.850298,708.761139,4646.673036)"></g><text x="476.609px" y="4646.673px" style="font-family:'FranklinGothic-Demi', 'Franklin Gothic Demi', sans-serif;font-size:73.85px;fill:#808080;">KIV<tspan x="583.526px 623.011px " y="4646.673px 4646.673px ">eS</tspan>S</text></g><g transform="matrix(1,0,0,0.987951,0,44.395552)"><g transform="matrix(73.850298,0,0,73.850298,1101.727332,4646.673036)"></g><text x="869.575px" y="4646.673px" style="font-family:'FranklinGothic-Demi', 'Franklin Gothic Demi', sans-serif;font-size:73.85px;fill:#808080;">KIV<tspan x="976.492px 1015.977px " y="4646.673px 4646.673px ">eS</tspan>S</text></g><g transform="matrix(1,0,0,0.987951,0,44.395552)"><g transform="matrix(73.850298,0,0,73.850298,1494.693526,4646.673036)"></g><text x="1262.541px" y="4646.673px" style="font-family:'FranklinGothic-Demi', 'Franklin Gothic Demi', sans-serif;font-size:73.85px;fill:#808080;">KIV<tspan x="1369.458px 1408.944px " y="4646.673px 4646.673px ">eS</tspan>S</text></g><g transform="matrix(1,0,0,0.987951,0,44.395552)"><g transform="matrix(73.850298,0,0,73.850298,1887.659719,4646.673036)"></g><text x="1655.507px" y="4646.673px" style="font-family:'FranklinGothic-Demi', 'Franklin Gothic Demi', sans-serif;font-size:73.85px;fill:#808080;">KIV<tspan x="1762.424px 1801.91px " y="4646.673px 4646.673px ">eS</tspan>S</text></g><g transform="matrix(1,0,0,0.987951,0,44.395552)"><g transform="matrix(73.850298,0,0,73.850298,2280.625912,4646.673036)"></g><text x="2048.473px" y="4646.673px" style="font-family:'FranklinGothic-Demi', 'Franklin Gothic Demi', sans-serif;font-size:73.85px;fill:#808080;">KIV<tspan x="2155.391px 2194.876px " y="4646.673px 4646.673px ">eS</tspan>S</text></g><g transform="matrix(1,0,0,0.987951,0,44.395552)"><g transform="matrix(73.850298,0,0,73.850298,2673.592105,4646.673036)"></g><text x="2441.44px" y="4646.673px" style="font-family:'FranklinGothic-Demi', 'Franklin Gothic Demi', sans-serif;font-size:73.85px;fill:#808080;">KIV<tspan x="2548.357px 2587.842px " y="4646.673px 4646.673px ">eS</tspan>S</text></g><g transform="matrix(1,0,0,0.987951,0,44.395552)"><g transform="matrix(73.850298,0,0,73.850298,3066.558298,4646.673036)"></g><text x="2834.406px" y="4646.673px" style="font-family:'FranklinGothic-Demi', 'Franklin Gothic Demi', sans-serif;font-size:73.85px;fill:#808080;">KIV<tspan x="2941.323px 2980.808px " y="4646.673px 4646.673px ">eS</tspan>S</text></g><g transform="matrix(1,0,0,0.987951,0,44.395552)"><g transform="matrix(73.850298,0,0,73.850298,3459.524492,4646.673036)"></g><text x="3227.372px" y="4646.673px" style="font-family:'FranklinGothic-Demi', 'Franklin Gothic Demi', sans-serif;font-size:73.85px;fill:#808080;">KIV<tspan x="3334.289px 3373.774px " y="4646.673px 4646.673px ">eS</tspan>S</text></g><g transform="matrix(1,0,0,0.987951,0,44.395552)"><g transform="matrix(73.850298,0,0,73.850298,3852.490685,4646.673036)"></g><text x="3620.338px" y="4646.673px" style="font-family:'FranklinGothic-Demi', 'Franklin Gothic Demi', sans-serif;font-size:73.85px;fill:#808080;">KIV<tspan x="3727.255px 3766.741px " y="4646.673px 4646.673px ">eS</tspan>S</text></g><g transform="matrix(1,0,0,0.987951,0,44.395552)"><g transform="matrix(73.850298,0,0,73.850298,4245.456878,4646.673036)"></g><text x="4013.304px" y="4646.673px" style="font-family:'FranklinGothic-Demi', 'Franklin Gothic Demi', sans-serif;font-size:73.85px;fill:#808080;">KIV<tspan x="4120.221px 4159.707px " y="4646.673px 4646.673px ">eS</tspan>S</text></g><g transform="matrix(1,0,0,0.987951,0,44.395552)"><g transform="matrix(73.850298,0,0,73.850298,4638.423071,4646.673036)"></g><text x="4406.271px" y="4646.673px" style="font-family:'FranklinGothic-Demi', 'Franklin Gothic Demi', sans-serif;font-size:73.85px;fill:#808080;">KIV<tspan x="4513.188px 4552.673px " y="4646.673px 4646.673px ">eS</tspan>S</text></g></svg>